<?xml version="1.0" encoding="utf-8"?>
<svg id="master-artboard" viewBox="0 0 1000 1000" version="1.1" xmlns="http://www.w3.org/2000/svg" x="0px" y="0px" style="enable-background:new 0 0 1000 1000;" width="1000px" height="1000px"><rect id="ee-background" x="0" y="0" width="1000" height="1000" style="fill: white; fill-opacity: 0; pointer-events: none;"/><defs><linearGradient id="gradient-0" gradientUnits="userSpaceOnUse" x1="506.4772033691406" y1="-122.31548309326172" x2="506.4772033691406" y2="1176.7845458984375">
                <stop offset="0" style="stop-color: #90888a"/>
                <stop offset="1" style="stop-color: #5c5657"/>
              </linearGradient></defs>


<g transform="matrix(1, 0, 0, 1, 0, 0)">
		<path class="st1" d="M60.8,136c-22.6,0-41,18.4-41,41s18.4,41,41,41s41-18.4,41-41S83.4,136,60.8,136z M60.8,208&#10;&#9;&#9;&#9;c-17.1,0-31-13.9-31-31c0-17.1,13.9-31,31-31s31,13.9,31,31C91.8,194.1,77.9,208,60.8,208z" style="fill: rgb(50, 38, 56);"/>
		<path class="st1" d="M155.1,195h27.7l0-36h-27.7c-2.4-12.8-7.5-25.1-14.9-36l19.6-19.6l-25.5-25.5l-19.6,19.6&#10;&#9;&#9;&#9;c-10.8-7.4-23.1-12.5-36-14.9V55h-36v27.7c-12.8,2.4-25.1,7.5-36,14.9l-19.6-19.6l-25.5,25.5l19.6,19.6&#10;&#9;&#9;&#9;c-7.4,10.8-12.5,23.1-14.9,36h-27.7l0,36l27.7,0c2.4,12.8,7.5,25.1,14.9,36l-19.6,19.6l25.5,25.5l19.6-19.6&#10;&#9;&#9;&#9;c10.8,7.4,23.1,12.5,36,14.9V299l36,0l0-27.7c12.8-2.4,25.1-7.5,36-14.9l19.6,19.6l25.5-25.5L140.2,231&#10;&#9;&#9;&#9;C147.6,220.2,152.7,207.9,155.1,195z M145.7,250.6l-11.3,11.3l-18.6-18.6l-3.5,2.6c-11.5,8.6-25,14.2-39.2,16.2l-4.3,0.6l0,26.3&#10;&#9;&#9;&#9;l-16,0v-26.3l-4.3-0.6c-14.2-2-27.7-7.6-39.2-16.2l-3.5-2.6l-18.6,18.6L-24,250.6L-5.5,232l-2.6-3.5c-8.6-11.5-14.2-25-16.2-39.2&#10;&#9;&#9;&#9;l-0.6-4.3l-26.3,0l0-16h26.3l0.6-4.3c2-14.2,7.6-27.7,16.2-39.2l2.6-3.5L-24,103.5l11.3-11.3l18.6,18.6l3.5-2.6&#10;&#9;&#9;&#9;c11.5-8.6,25-14.2,39.2-16.2l4.3-0.6V65h16v26.3l4.3,0.6c14.2,2,27.7,7.6,39.2,16.2l3.5,2.6l18.6-18.6l11.3,11.3l-18.6,18.6&#10;&#9;&#9;&#9;l2.6,3.5c8.6,11.5,14.2,25,16.2,39.2l0.6,4.3h26.3l0,16h-26.3l-0.6,4.3c-2,14.2-7.6,27.7-16.2,39.2l-2.6,3.5L145.7,250.6z" style="fill: rgb(50, 38, 56);"/>
	</g><path class="st1" d="M254.7-35.6l19-2.3l-3.3-27.8l-19,2.3c-0.9-3-1.9-6-3.1-9c-0.3-0.6-0.5-1.2-0.8-1.9l16-10.5l-15.3-23.4&#10;&#9;&#9;l-16,10.5c-2.6-2.9-5.4-5.5-8.4-8l9.7-16.5l-24.2-14.1l-9.7,16.5c-3.6-1.4-7.3-2.5-11-3.4l1.3-19.1l-27.9-1.9l-1.3,19.1&#10;&#9;&#9;c-3.8,0.4-7.5,1-11.3,1.9l-7.3-17.7l-25.9,10.7l7.3,17.7c-1.2,0.7-2.3,1.5-3.5,2.3L106.7-124l-20.2,19.4l13.3,13.8&#10;&#9;&#9;c-0.8,1.1-1.6,2.2-2.4,3.3l-17.4-8L68.4-70l17.4,8c-1,3.7-1.8,7.5-2.3,11.3l-19.1,0.6l0.9,28l19.1-0.6c0.7,3.8,1.8,7.5,3,11.1&#10;&#9;&#9;L70.5-2.6l13.3,24.7l16.8-9c2.4,3.1,4.9,6,7.6,8.7L97.2,37.3l22.8,16.2l11-15.6c3.5,1.7,7,3.1,10.7,4.3l-3,18.9l27.7,4.3l3-18.9&#10;&#9;&#9;c3.9,0,7.7-0.3,11.5-0.9l5.8,18.2l26.7-8.4l-5.8-18.3c3.5-1.8,6.8-3.7,9.9-5.9l13.3,13.8L251,25.7l-13.3-13.8&#10;&#9;&#9;c2.3-3.1,4.4-6.3,6.2-9.7L262,8.7l9.4-26.4l-18.1-6.4C254.1-27.9,254.5-31.7,254.7-35.6z M158.4,35.9l-3-0.5&#10;&#9;&#9;c-10.3-1.8-20-5.7-28.5-11.4l-3.9-2.8c-9.3-7-17-16.2-22.3-27L150-26.2c4.2,6.1,11.2,9.8,18.8,9.8c0,0,0,0,0,0c1.3,0,2.7-0.1,4-0.4&#10;&#9;&#9;l20.4,49.3c-0.7,0.3-1.5,0.5-2.2,0.7l-0.2,0.1c-7.1,2.2-14.5,3.3-21.9,3.3C165.3,36.6,161.8,36.3,158.4,35.9z M92.8-39.5&#10;&#9;&#9;c0-9.8,1.9-19.7,5.8-29.1c3.8-9.2,9.2-17.3,16-24.2l3.2-3.1c5.2-4.7,11-8.6,17.4-11.8l20.4,49.3c-7.3,5.1-11,14-9.4,22.8L96.8-15&#10;&#9;&#9;c-2.2-6.6-3.6-13.3-3.9-20.1L92.8-39.5z M172.9-115.3l2.5,0.2c10.6,0.9,20.7,4,29.8,8.9l4.2,2.5c8.9,5.6,16.5,13,22.5,21.9l0.9,1.4&#10;&#9;&#9;c1.5,2.4,2.9,4.8,4.1,7.4l-49.3,20.4c-4.2-6.1-11.2-9.8-18.8-9.8c-1.3,0-2.7,0.1-4,0.4l-20.4-49.3c7.9-2.7,16.1-4.1,24.4-4.1&#10;&#9;&#9;C170.1-115.5,171.5-115.4,172.9-115.3z M182-20.6c3.6-2.5,6.3-5.9,8-10c1.7-4.1,2.2-8.5,1.4-12.8l49.3-20.4&#10;&#9;&#9;c12.2,36-4.2,75.7-38.3,92.5L182-20.6z" style="fill: rgb(50, 38, 56);" transform="matrix(1, 0, 0, 1, 0, 0)"/><g transform="matrix(1, 0, 0, 1, 0, 0)">
		<path d="M -51.200001 -150.600006 H 1051.100048 V 1148.499969 H -51.200001 V -150.600006 Z" class="st0" style="fill: rgb(144, 136, 138); fill-opacity: 0; stroke: rgb(226, 255, 97); stroke-opacity: 1; stroke-width: 0;"/>
	</g><path class="st1" d="M231.8,82c-22.6,0-41,18.4-41,41s18.4,41,41,41s41-18.4,41-41S254.4,82,231.8,82z M231.8,154&#10;&#9;&#9;&#9;c-17.1,0-31-13.9-31-31c0-17.1,13.9-31,31-31c17.1,0,31,13.9,31,31C262.8,140.1,248.9,154,231.8,154z" style="fill: rgb(50, 38, 56);" transform="matrix(1, 0, 0, 1, 0, 0)"/><path class="st1" d="M231.8,109c-7.7,0-14,6.3-14,14c0,7.7,6.3,14,14,14c7.7,0,14-6.3,14-14C245.8,115.3,239.6,109,231.8,109z&#10;&#9;&#9;&#9; M231.8,127c-2.2,0-4-1.8-4-4c0-2.2,1.8-4,4-4c2.2,0,4,1.8,4,4C235.8,125.3,234,127,231.8,127z" style="fill: rgb(50, 38, 56);" transform="matrix(1, 0, 0, 1, 0, 0)"/><path class="st1" d="M55.4,4.4l2.6-22.6l-13.6-1.6c-0.1-2.1-0.3-4.1-0.6-6.1l13.1-4.1l-6.8-21.7L37-47.7c-0.9-1.8-2-3.6-3-5.4&#10;&#9;&#9;&#9;l10.2-9.1l-15.1-17L18.8-70c-1.6-1.3-3.3-2.5-5-3.6l5.6-12.5l-20.8-9.3L-6.9-83c-2-0.5-4-0.9-6-1.3V-98h-22.8v13.7&#10;&#9;&#9;&#9;c-1,0.2-2.1,0.4-3.1,0.6l-5.1-12.7L-65-88l5.1,12.7c-1.8,1.1-3.5,2.2-5.1,3.4l-9.8-9.6l-15.9,16.3l9.8,9.5&#10;&#9;&#9;&#9;c-1.2,1.7-2.3,3.4-3.3,5.2L-97.1-55l-7.8,21.4l12.9,4.7c-0.4,2-0.7,4.1-0.8,6.1l-13.7,1l1.7,22.7l13.7-1c0.5,2,1.1,4,1.7,5.9&#10;&#9;&#9;&#9;l-12.1,6.5l10.8,20l12.1-6.5c1.3,1.6,2.6,3.2,4,4.7L-83,41.4l18.1,13.9l8.3-10.9c1.8,1,3.7,1.8,5.6,2.6l-3.2,13.3l22.2,5.2&#10;&#9;&#9;&#9;l3.2-13.3c2.1,0.1,4.1,0.2,6.2,0.1l2.6,13.5l22.4-4.3l-2.6-13.5c1.9-0.7,3.8-1.5,5.7-2.4L13.2,57l18.6-13.1L24,32.7&#10;&#9;&#9;&#9;c1.5-1.4,2.9-2.9,4.2-4.5l11.8,7l11.7-19.6l-11.8-7c0.7-1.9,1.4-3.9,2-5.8L55.4,4.4z M37.9,19.1l-1.4,2.4L25.6,15L23,18.7&#10;&#9;&#9;&#9;c-2.6,3.5-5.6,6.7-8.9,9.5l-3.4,3l7.2,10.3l-2.3,1.6L8.4,32.7l-3.9,2.2c-3.8,2.1-7.8,3.8-12,5.1l-4.3,1.3l2.4,12.4l-2.7,0.5&#10;&#9;&#9;&#9;l-2.4-12.4l-4.5,0.4c-4.4,0.4-8.7,0.3-13-0.3l-4.5-0.6l-2.9,12.3l-2.7-0.6l2.9-12.3l-4.3-1.5c-4.1-1.4-8-3.3-11.7-5.6l-3.8-2.4&#10;&#9;&#9;&#9;l-7.7,10l-2.2-1.7l7.7-10l-3.3-3.1c-3.2-3-6-6.3-8.4-9.9l-2.5-3.7l-11.1,6l-1.3-2.4l11.1-6l-1.7-4.2c-1.7-4-2.9-8.2-3.6-12.5&#10;&#9;&#9;&#9;l-0.8-4.5l-12.6,0.9l-0.2-2.8l12.6-0.9l0.1-4.5c0.1-4.4,0.7-8.7,1.8-12.9l1.1-4.4l-11.8-4.3l0.9-2.6l11.8,4.3l2-4.1&#10;&#9;&#9;&#9;c1.9-3.9,4.2-7.6,6.9-11l2.8-3.5l-9.1-8.8l1.9-2l9.1,8.8l3.5-2.9c3.3-2.8,7-5.2,10.8-7.2l4-2.1l-4.7-11.7l2.6-1l4.7,11.7l4.3-1.2&#10;&#9;&#9;&#9;c3.3-1,6.8-1.6,10.3-2l4.5-0.4V-88h2.8v12.6l4.5,0.4c4.3,0.4,8.6,1.3,12.7,2.7l4.3,1.4l5.2-11.5l2.5,1.1L1.1-69.7L5-67.4&#10;&#9;&#9;&#9;c3.7,2.2,7.3,4.8,10.5,7.7l3.3,3.1l9.4-8.4l1.8,2.1l-9.4,8.4l2.7,3.7c2.6,3.5,4.7,7.3,6.4,11.3l1.8,4.2l12-3.8l0.8,2.6l-12,3.8&#10;&#9;&#9;&#9;l0.9,4.4c0.8,3.9,1.2,8,1.2,12c0,0.2,0,0.5,0,0.7l-0.1,4.8L47-9.5l-0.3,2.7L34.1-8.2l-1,4.4C32.2,0.5,30.8,4.6,29,8.6l-1.9,4.1&#10;&#9;&#9;&#9;L37.9,19.1z" style="fill: rgb(50, 38, 56);" transform="matrix(1, 0, 0, 1, 0, 0)"/><path class="st1" d="M337.2,303l4.6-22.3l-13.4-2.8c0.1-2.1,0.1-4.1,0-6.2l13.4-2.9l-4.9-22.2l-13.4,2.9c-0.8-1.9-1.6-3.8-2.5-5.6&#10;&#9;&#9;l11-8.2l-13.6-18.3l-11,8.2c-1.5-1.4-3-2.8-4.6-4.1l6.7-12l-19.9-11.1l-6.7,12c-1-0.4-2-0.7-3-1l1.8-13.6l-22.6-3l-1.8,13.6&#10;&#9;&#9;c-2,0.1-4.1,0.2-6.1,0.5l-3.9-13.1l-21.8,6.5l3.9,13.1c-1.8,0.9-3.7,1.9-5.4,2.9l-8.9-10.4l-17.3,14.9l8.9,10.4&#10;&#9;&#9;c-1.3,1.6-2.6,3.2-3.7,4.9l-12.4-5.8l-9.7,20.6l12.4,5.8c-0.6,2-1,4-1.4,6l-13.7-0.2l-0.4,22.8l13.7,0.2c0.3,2,0.7,4,1.2,6&#10;&#9;&#9;l-12.6,5.4l9,20.9l12.6-5.4c1.1,1.7,2.3,3.4,3.6,5l-9.3,10.1l16.8,15.4l9.3-10.1c1.3,0.8,2.6,1.6,3.9,2.4c0.5,0.3,0.9,0.5,1.4,0.8&#10;&#9;&#9;l-4.3,13l21.6,7.2l4.3-13c2,0.3,4.1,0.5,6.1,0.7l1.4,13.6l22.7-2.3l-1.4-13.6c2-0.5,3.9-1.2,5.9-1.9l6.8,11.9l19.7-11.3l-6.8-11.9&#10;&#9;&#9;c1.6-1.3,3.1-2.7,4.6-4.1l11.1,8l13.4-18.4l-11.1-8.1c0.9-1.8,1.7-3.7,2.5-5.6L337.2,303z M234.6,292c-3.4,6.1-11.2,8.3-17.4,4.9&#10;&#9;&#9;c-6.1-3.4-8.3-11.2-4.9-17.4c3.4-6.1,11.2-8.3,17.4-4.9C235.9,278.1,238.1,285.9,234.6,292z M243.7,249.8&#10;&#9;&#9;c-6.1-3.4-8.3-11.2-4.9-17.4c3.4-6.1,11.2-8.3,17.4-4.9c6.1,3.4,8.3,11.2,4.9,17.4C257.6,251.1,249.8,253.3,243.7,249.8z&#10;&#9;&#9; M253.6,285.8c-5.9-3.3-8-10.8-4.7-16.7c3.3-5.9,10.8-8,16.7-4.7c5.9,3.3,8,10.8,4.7,16.7C267,287,259.5,289.1,253.6,285.8z&#10;&#9;&#9; M280.5,317.7c-3.4,6.1-11.2,8.3-17.4,4.9c-6.1-3.4-8.3-11.2-4.9-17.4c3.4-6.2,11.2-8.3,17.4-4.9&#10;&#9;&#9;C281.7,303.8,283.9,311.6,280.5,317.7z M306.9,270.6c-3.4,6.2-11.2,8.3-17.4,4.9c-6.1-3.4-8.3-11.2-4.9-17.4&#10;&#9;&#9;c3.4-6.1,11.2-8.3,17.4-4.9C308.1,256.7,310.3,264.5,306.9,270.6z" style="fill: rgb(50, 38, 56); fill-opacity: 1;" transform="matrix(1, 0, 0, 1, 0, 0)"/><path class="st1" d="M398.8,94V71h-14.3c-1.2-5.3-3.4-10.5-6.3-15.1l10.1-10.1l-16.3-16.3L362,39.6c-4.7-2.9-9.8-5-15.1-6.3V19h-23&#10;&#9;&#9;v14.3c-5.3,1.2-10.5,3.4-15.1,6.3l-10.1-10.1l-16.3,16.3l10.1,10.1c-2.9,4.7-5,9.8-6.3,15.1h-14.3l0,23l14.3,0&#10;&#9;&#9;c1.2,5.3,3.4,10.5,6.3,15.1l-10.1,10.1l16.3,16.3l10.1-10.1c4.7,2.9,9.8,5,15.1,6.3V146h23v-14.3c5.3-1.2,10.5-3.4,15.1-6.3&#10;&#9;&#9;l10.1,10.1l16.3-16.3l-10.1-10.1c2.9-4.7,5-9.8,6.3-15.1H398.8z M335.3,100.5c-9.9,0-18-8.1-18-18s8.1-18,18-18c9.9,0,18,8.1,18,18&#10;&#9;&#9;S345.3,100.5,335.3,100.5z" style="fill: rgb(50, 38, 56);" transform="matrix(1, 0, 0, 1, 0, 0)"/><path class="st1" d="M1155.1,195h27.7v-36h-27.7c-2.4-12.8-7.5-25.1-14.9-36l19.6-19.6l-25.5-25.5l-19.6,19.6&#10;&#9;&#9;&#9;c-10.8-7.4-23.1-12.5-36-14.9V55h-36v27.7c-12.8,2.4-25.1,7.5-36,14.9l-19.6-19.6l-25.5,25.5l19.6,19.6&#10;&#9;&#9;&#9;c-7.4,10.8-12.5,23.1-14.9,36h-27.7l0,36l27.7,0c2.4,12.8,7.5,25.1,14.9,36l-19.6,19.6l25.5,25.5l19.6-19.6&#10;&#9;&#9;&#9;c10.8,7.4,23.1,12.5,36,14.9V299l36,0v-27.7c12.8-2.4,25.1-7.5,36-14.9l19.6,19.6l25.5-25.5l-19.6-19.6&#10;&#9;&#9;&#9;C1147.6,220.2,1152.7,207.9,1155.1,195z M1145.7,250.6l-11.3,11.3l-18.6-18.6l-3.5,2.6c-11.5,8.6-25,14.2-39.2,16.2l-4.3,0.6V289&#10;&#9;&#9;&#9;l-16,0v-26.3l-4.3-0.6c-14.2-2-27.7-7.6-39.2-16.2l-3.5-2.6l-18.6,18.6L976,250.6l18.6-18.6l-2.6-3.5c-8.6-11.5-14.2-25-16.2-39.2&#10;&#9;&#9;&#9;l-0.6-4.3l-26.3,0l0-16h26.3l0.6-4.3c2-14.2,7.6-27.7,16.2-39.2l2.6-3.5L976,103.5l11.3-11.3l18.6,18.6l3.5-2.6&#10;&#9;&#9;&#9;c11.5-8.6,25-14.2,39.2-16.2l4.3-0.6V65h16v26.3l4.3,0.6c14.2,2,27.7,7.6,39.2,16.2l3.5,2.6l18.6-18.6l11.3,11.3l-18.6,18.6&#10;&#9;&#9;&#9;l2.6,3.5c8.6,11.5,14.2,25,16.2,39.2l0.6,4.3h26.3v16h-26.3l-0.6,4.3c-2,14.2-7.6,27.7-16.2,39.2l-2.6,3.5L1145.7,250.6z" style="fill: rgb(50, 38, 56);" transform="matrix(1, 0, 0, 1, 0, 0)"/><path class="st1" d="M785.8,510.5c-22.6,0-41,18.4-41,41s18.4,41,41,41c22.6,0,41-18.4,41-41S808.4,510.5,785.8,510.5z&#10;&#9;&#9;&#9; M785.8,582.5c-17.1,0-31-13.9-31-31c0-17.1,13.9-31,31-31s31,13.9,31,31C816.8,568.6,802.9,582.5,785.8,582.5z" style="fill: rgb(50, 38, 56);" transform="matrix(1, 0, 0, 1, 0, 0)"/><path class="st1" d="M785.8,537.5c-7.7,0-14,6.3-14,14s6.3,14,14,14c7.7,0,14-6.3,14-14S793.6,537.5,785.8,537.5z M785.8,555.5&#10;&#9;&#9;&#9;c-2.2,0-4-1.8-4-4s1.8-4,4-4c2.2,0,4,1.8,4,4S788,555.5,785.8,555.5z" style="fill: rgb(50, 38, 56);" transform="matrix(1, 0, 0, 1, 0, 0)"/><path class="st1" d="M975.7-34.2c-9.8,0-17.8,8-17.8,17.8c0,9.8,8,17.8,17.8,17.8c9.8,0,17.8-8,17.8-17.8&#10;&#9;&#9;&#9;C993.5-26.2,985.5-34.2,975.7-34.2z M975.7-8.6c-4.3,0-7.8-3.5-7.8-7.8c0-4.3,3.5-7.8,7.8-7.8c4.3,0,7.8,3.5,7.8,7.8&#10;&#9;&#9;&#9;C983.5-12.1,980-8.6,975.7-8.6z" style="fill: rgb(50, 38, 56);" transform="matrix(1, 0, 0, 1, 0, 0)"/><path class="st1" d="M1055.4,4.4l2.6-22.6l-13.6-1.6c-0.1-2.1-0.3-4.1-0.6-6.1l13.1-4.1l-6.8-21.7l-13.1,4.1c-0.9-1.8-2-3.6-3-5.4&#10;&#9;&#9;&#9;l10.2-9.1l-15.1-17l-10.2,9.1c-1.6-1.3-3.3-2.5-5-3.6l5.6-12.5l-20.8-9.3L993.1-83c-2-0.5-4-0.9-6-1.3V-98h-22.8v13.7&#10;&#9;&#9;&#9;c-1,0.2-2.1,0.4-3.1,0.6l-5.1-12.7L935-88l5.1,12.7c-1.8,1.1-3.5,2.2-5.1,3.4l-9.8-9.6l-15.9,16.3l9.8,9.5&#10;&#9;&#9;&#9;c-1.2,1.7-2.3,3.4-3.3,5.2L902.9-55l-7.8,21.4l12.9,4.7c-0.4,2-0.7,4.1-0.8,6.1l-13.7,1l1.7,22.7l13.7-1c0.5,2,1.1,4,1.7,5.9&#10;&#9;&#9;&#9;l-12.1,6.5l10.8,20l12.1-6.5c1.3,1.6,2.6,3.2,4,4.7L917,41.4l18.1,13.9l8.3-10.9c1.8,1,3.7,1.8,5.6,2.6l-3.2,13.3l22.2,5.2&#10;&#9;&#9;&#9;l3.2-13.3c2.1,0.1,4.1,0.2,6.2,0.1l2.6,13.5l22.4-4.3l-2.6-13.5c1.9-0.7,3.8-1.5,5.7-2.4l7.9,11.2l18.6-13.1l-7.9-11.2&#10;&#9;&#9;&#9;c1.5-1.4,2.9-2.9,4.2-4.5l11.8,7l11.7-19.6l-11.8-7c0.7-1.9,1.4-3.9,2-5.8L1055.4,4.4z M1037.9,19.1l-1.4,2.4l-10.8-6.5l-2.7,3.6&#10;&#9;&#9;&#9;c-2.6,3.5-5.6,6.7-8.9,9.5l-3.4,3l7.2,10.3l-2.3,1.6l-7.2-10.3l-3.9,2.2c-3.8,2.1-7.8,3.8-12,5.1l-4.3,1.3l2.4,12.4l-2.7,0.5&#10;&#9;&#9;&#9;l-2.4-12.4l-4.5,0.4c-4.4,0.4-8.7,0.3-13-0.3l-4.5-0.6l-2.9,12.3l-2.7-0.6l2.9-12.3l-4.3-1.5c-4.1-1.4-8-3.3-11.7-5.6l-3.8-2.4&#10;&#9;&#9;&#9;l-7.7,10l-2.2-1.7l7.7-10l-3.3-3.1c-3.2-3-6-6.3-8.4-9.9l-2.5-3.7l-11.1,6l-1.3-2.4l11.1-6l-1.7-4.2c-1.7-4-2.9-8.2-3.6-12.5&#10;&#9;&#9;&#9;l-0.8-4.5l-12.6,0.9l-0.2-2.8l12.6-0.9l0.1-4.5c0.1-4.4,0.7-8.7,1.8-12.9l1.1-4.4l-11.8-4.3l0.9-2.6l11.8,4.3l2-4.1&#10;&#9;&#9;&#9;c1.9-3.9,4.2-7.6,6.9-11l2.8-3.5l-9-8.8l1.9-2l9.1,8.8l3.5-2.9c3.3-2.8,7-5.2,10.8-7.2l4-2.1l-4.7-11.7l2.6-1l4.7,11.7l4.3-1.2&#10;&#9;&#9;&#9;c3.3-1,6.8-1.6,10.3-2l4.5-0.4V-88h2.8v12.6l4.5,0.4c4.3,0.4,8.6,1.3,12.7,2.7l4.3,1.4l5.2-11.5l2.5,1.1l-5.2,11.5l3.9,2.3&#10;&#9;&#9;&#9;c3.8,2.2,7.3,4.8,10.5,7.7l3.3,3.1l9.4-8.4l1.8,2.1l-9.4,8.4l2.7,3.7c2.6,3.5,4.7,7.3,6.4,11.3l1.8,4.2l12-3.8l0.8,2.6l-12,3.8&#10;&#9;&#9;&#9;l0.9,4.4c0.8,3.9,1.2,8,1.2,12c0,0.2,0,0.5,0,0.7l-0.1,4.8l12.5,1.5l-0.3,2.7l-12.5-1.5l-1,4.4c-0.9,4.2-2.3,8.4-4.2,12.3&#10;&#9;&#9;&#9;l-1.9,4.1L1037.9,19.1z" style="fill: rgb(50, 38, 56);" transform="matrix(1, 0, 0, 1, 0, 0)"/><path class="st1" d="M870.8,9.5v-23h-14.3c-1.2-5.3-3.4-10.5-6.3-15.1l10.1-10.1L844.1-55L834-44.9c-4.7-2.9-9.8-5-15.1-6.3v-14.3&#10;&#9;&#9;h-23v14.3c-5.3,1.2-10.5,3.4-15.1,6.3L770.6-55l-16.3,16.3l10.1,10.1c-2.9,4.7-5,9.8-6.3,15.1h-14.3l0,23l14.3,0&#10;&#9;&#9;c1.2,5.3,3.4,10.5,6.3,15.1l-10.1,10.1L770.6,51l10.1-10.1c4.7,2.9,9.8,5,15.1,6.3v14.3h23V47.2c5.3-1.2,10.5-3.4,15.1-6.3&#10;&#9;&#9;L844.1,51l16.3-16.3l-10.1-10.1c2.9-4.7,5-9.8,6.3-15.1H870.8z M807.3,16c-9.9,0-18-8.1-18-18s8.1-18,18-18c9.9,0,18,8.1,18,18&#10;&#9;&#9;S817.3,16,807.3,16z" style="fill: rgb(50, 38, 56);" transform="matrix(1, 0, 0, 1, 0, 0)"/><path class="st1" d="M254.7,964.4l19-2.3l-3.3-27.8l-19,2.3c-0.9-3-1.9-6-3.1-9c-0.3-0.6-0.5-1.2-0.8-1.9l16-10.5l-15.3-23.4&#10;&#9;&#9;l-16,10.5c-2.6-2.9-5.4-5.5-8.4-8l9.7-16.5l-24.2-14.1l-9.7,16.5c-3.6-1.4-7.3-2.5-11-3.4l1.3-19.1l-27.9-1.9l-1.3,19.1&#10;&#9;&#9;c-3.8,0.4-7.5,1-11.3,1.9l-7.3-17.7l-25.9,10.7l7.3,17.7c-1.2,0.7-2.3,1.5-3.5,2.3L106.7,876l-20.2,19.4l13.3,13.8&#10;&#9;&#9;c-0.8,1.1-1.6,2.2-2.4,3.3l-17.4-8L68.4,930l17.4,8c-1,3.7-1.8,7.5-2.3,11.3l-19.1,0.6l0.9,28l19.1-0.6c0.7,3.8,1.8,7.5,3,11.1&#10;&#9;&#9;l-16.9,9.1l13.3,24.7l16.8-9c2.4,3.1,4.9,6,7.6,8.7l-11.1,15.6l22.8,16.2l11-15.6c3.5,1.7,7,3.1,10.7,4.3l-3,18.9l27.7,4.3l3-18.9&#10;&#9;&#9;c3.9,0,7.7-0.3,11.5-0.9l5.8,18.2l26.7-8.4l-5.8-18.3c3.5-1.8,6.8-3.7,9.9-5.9l13.3,13.8l20.2-19.4l-13.3-13.8&#10;&#9;&#9;c2.3-3.1,4.4-6.3,6.2-9.7l18.1,6.4l9.4-26.4l-18.1-6.4C254.1,972.1,254.5,968.3,254.7,964.4z M158.4,1035.9l-3-0.5&#10;&#9;&#9;c-10.3-1.8-20-5.7-28.5-11.4l-3.9-2.8c-9.3-7-17-16.2-22.3-27l49.3-20.4c4.2,6.1,11.2,9.8,18.8,9.8c0,0,0,0,0,0&#10;&#9;&#9;c1.3,0,2.7-0.1,4-0.4l20.4,49.3c-0.7,0.3-1.5,0.5-2.2,0.7l-0.2,0.1c-7.1,2.2-14.5,3.3-21.9,3.3&#10;&#9;&#9;C165.3,1036.6,161.8,1036.3,158.4,1035.9z M92.8,960.5c0-9.8,1.9-19.7,5.8-29.1c3.8-9.2,9.2-17.3,16-24.2l3.2-3.1&#10;&#9;&#9;c5.2-4.7,11-8.6,17.4-11.8l20.4,49.3c-7.3,5.1-11,14-9.4,22.8L96.8,985c-2.2-6.6-3.6-13.3-3.9-20.1L92.8,960.5z M172.9,884.7&#10;&#9;&#9;l2.5,0.2c10.6,0.9,20.7,4,29.8,8.9l4.2,2.5c8.9,5.6,16.5,13,22.5,21.9l0.9,1.4c1.5,2.4,2.9,4.8,4.1,7.4l-49.3,20.4&#10;&#9;&#9;c-4.2-6.1-11.2-9.8-18.8-9.8c-1.3,0-2.7,0.1-4,0.4l-20.4-49.3c7.9-2.7,16.1-4.1,24.4-4.1C170.1,884.5,171.5,884.6,172.9,884.7z&#10;&#9;&#9; M182,979.4c3.6-2.5,6.3-5.9,8-10c1.7-4.1,2.2-8.5,1.4-12.8l49.3-20.4c12.2,36-4.2,75.7-38.3,92.5L182,979.4z" style="fill: rgb(50, 38, 56);" transform="matrix(1, 0, 0, 1, 0, 0)"/><path class="st1" d="M370.8,680.5c-22.6,0-41,18.4-41,41s18.4,41,41,41c22.6,0,41-18.4,41-41S393.4,680.5,370.8,680.5z&#10;&#9;&#9;&#9; M370.8,752.5c-17.1,0-31-13.9-31-31c0-17.1,13.9-31,31-31c17.1,0,31,13.9,31,31C401.8,738.6,387.9,752.5,370.8,752.5z" style="fill: rgb(50, 38, 56);" transform="matrix(1, 0, 0, 1, 0, 0)"/><path class="st1" d="M370.8,707.5c-7.7,0-14,6.3-14,14s6.3,14,14,14s14-6.3,14-14S378.6,707.5,370.8,707.5z M370.8,725.5&#10;&#9;&#9;&#9;c-2.2,0-4-1.8-4-4s1.8-4,4-4s4,1.8,4,4S373,725.5,370.8,725.5z" style="fill: rgb(50, 38, 56);" transform="matrix(1, 0, 0, 1, 0, 0)"/><path class="st1" d="M55.4,1004.4l2.6-22.6l-13.6-1.6c-0.1-2.1-0.3-4.1-0.6-6.1l13.1-4.1l-6.8-21.7L37,952.3c-0.9-1.8-2-3.6-3-5.4&#10;&#9;&#9;&#9;l10.2-9.1l-15.1-17L18.8,930c-1.6-1.3-3.3-2.5-5-3.6l5.6-12.5l-20.8-9.3L-6.9,917c-2-0.5-4-0.9-6-1.3V902h-22.8v13.7&#10;&#9;&#9;&#9;c-1,0.2-2.1,0.4-3.1,0.6l-5.1-12.7L-65,912l5.1,12.7c-1.8,1.1-3.5,2.2-5.1,3.4l-9.8-9.6l-15.9,16.3l9.8,9.5&#10;&#9;&#9;&#9;c-1.2,1.7-2.3,3.4-3.3,5.2l-12.9-4.7l-7.8,21.4l12.9,4.7c-0.4,2-0.7,4.1-0.8,6.1l-13.7,1l1.7,22.7l13.7-1c0.5,2,1.1,4,1.7,5.9&#10;&#9;&#9;&#9;l-12.1,6.5l10.8,20l12.1-6.5c1.3,1.6,2.6,3.2,4,4.7l-8.3,10.9l18.1,13.9l8.3-10.9c1.8,1,3.7,1.8,5.6,2.6l-3.2,13.3l22.2,5.2&#10;&#9;&#9;&#9;l3.2-13.3c2.1,0.1,4.1,0.2,6.2,0.1l2.6,13.5l22.4-4.3l-2.6-13.5c1.9-0.7,3.8-1.5,5.7-2.4l7.9,11.2l18.6-13.1l-7.9-11.2&#10;&#9;&#9;&#9;c1.5-1.4,2.9-2.9,4.2-4.5l11.8,7l11.7-19.5l-11.8-7c0.7-1.9,1.4-3.9,2-5.8L55.4,1004.4z M37.9,1019.1l-1.4,2.4l-10.8-6.5l-2.7,3.6&#10;&#9;&#9;&#9;c-2.6,3.5-5.6,6.7-8.9,9.5l-3.4,3l7.2,10.3l-2.3,1.6l-7.2-10.3l-3.9,2.2c-3.8,2.1-7.8,3.8-12,5.1l-4.3,1.3l2.4,12.4l-2.7,0.5&#10;&#9;&#9;&#9;l-2.4-12.4l-4.5,0.4c-4.4,0.4-8.7,0.3-13-0.3l-4.5-0.6l-2.9,12.3l-2.7-0.6l2.9-12.3l-4.3-1.5c-4.1-1.4-8-3.3-11.7-5.6l-3.8-2.4&#10;&#9;&#9;&#9;l-7.7,10l-2.2-1.7l7.7-10l-3.3-3.1c-3.2-3-6-6.3-8.4-9.9l-2.5-3.7l-11.1,6l-1.3-2.4l11.1-6l-1.7-4.2c-1.7-4-2.9-8.2-3.6-12.5&#10;&#9;&#9;&#9;l-0.8-4.5l-12.6,0.9l-0.2-2.8l12.6-0.9l0.1-4.5c0.1-4.4,0.7-8.7,1.8-12.9l1.1-4.4l-11.8-4.3l0.9-2.6l11.8,4.3l2-4.1&#10;&#9;&#9;&#9;c1.9-3.9,4.2-7.6,6.9-11l2.8-3.5l-9.1-8.8l1.9-2l9.1,8.8l3.5-2.9c3.3-2.8,7-5.2,10.8-7.2l4-2.1l-4.7-11.7l2.6-1l4.7,11.7l4.3-1.2&#10;&#9;&#9;&#9;c3.3-1,6.8-1.6,10.3-2l4.5-0.4V912h2.8v12.6l4.5,0.4c4.3,0.4,8.6,1.3,12.7,2.7l4.3,1.4l5.2-11.5l2.5,1.1l-5.2,11.5l3.9,2.3&#10;&#9;&#9;&#9;c3.7,2.2,7.3,4.8,10.5,7.7l3.3,3.1l9.4-8.4l1.8,2.1l-9.4,8.4l2.7,3.7c2.6,3.5,4.7,7.3,6.4,11.3l1.8,4.2l12-3.8l0.8,2.6l-12,3.8&#10;&#9;&#9;&#9;l0.9,4.4c0.8,3.9,1.2,8,1.2,12c0,0.2,0,0.5,0,0.7l-0.1,4.8l12.5,1.5l-0.3,2.7l-12.5-1.5l-1,4.4c-0.9,4.2-2.3,8.4-4.2,12.3&#10;&#9;&#9;&#9;l-1.9,4.1L37.9,1019.1z" style="fill: rgb(50, 38, 56);" transform="matrix(1, 0, 0, 1, 0, 0)"/><path class="st1" d="M766.8,852.5c-22.6,0-41,18.4-41,41s18.4,41,41,41c22.6,0,41-18.4,41-41S789.4,852.5,766.8,852.5z&#10;&#9;&#9;&#9; M766.8,924.5c-17.1,0-31-13.9-31-31c0-17.1,13.9-31,31-31s31,13.9,31,31C797.8,910.6,783.9,924.5,766.8,924.5z" style="fill: rgb(50, 38, 56);" transform="matrix(1, 0, 0, 1, 0, 0)"/><path class="st1" d="M766.8,879.5c-7.7,0-14,6.3-14,14s6.3,14,14,14c7.7,0,14-6.3,14-14S774.6,879.5,766.8,879.5z M766.8,897.5&#10;&#9;&#9;&#9;c-2.2,0-4-1.8-4-4s1.8-4,4-4c2.2,0,4,1.8,4,4S769,897.5,766.8,897.5z" style="fill: rgb(50, 38, 56);" transform="matrix(1, 0, 0, 1, 0, 0)"/><path class="st1" d="M975.7,965.8c-9.8,0-17.8,8-17.8,17.8s8,17.8,17.8,17.8c9.8,0,17.8-8,17.8-17.8S985.5,965.8,975.7,965.8z&#10;&#9;&#9;&#9; M975.7,991.4c-4.3,0-7.8-3.5-7.8-7.8c0-4.3,3.5-7.8,7.8-7.8c4.3,0,7.8,3.5,7.8,7.8C983.5,987.9,980,991.4,975.7,991.4z" style="fill: rgb(50, 38, 56);" transform="matrix(1, 0, 0, 1, 0, 0)"/><path class="st1" d="M1055.4,1004.4l2.6-22.6l-13.6-1.6c-0.1-2.1-0.3-4.1-0.6-6.1l13.1-4.1l-6.8-21.7l-13.1,4.1&#10;&#9;&#9;&#9;c-0.9-1.8-2-3.6-3-5.4l10.2-9.1l-15.1-17l-10.2,9.1c-1.6-1.3-3.3-2.5-5-3.6l5.6-12.5l-20.8-9.3l-5.6,12.5c-2-0.5-4-0.9-6-1.3V902&#10;&#9;&#9;&#9;h-22.8v13.7c-1,0.2-2.1,0.4-3.1,0.6l-5.1-12.7L935,912l5.1,12.7c-1.8,1.1-3.5,2.2-5.1,3.4l-9.8-9.6l-15.9,16.3l9.8,9.5&#10;&#9;&#9;&#9;c-1.2,1.7-2.3,3.4-3.3,5.2l-12.9-4.7l-7.8,21.4l12.9,4.7c-0.4,2-0.7,4.1-0.8,6.1l-13.7,1l1.7,22.7l13.7-1c0.5,2,1.1,4,1.7,5.9&#10;&#9;&#9;&#9;l-12.1,6.5l10.8,20l12.1-6.5c1.3,1.6,2.6,3.2,4,4.7l-8.3,10.9l18.1,13.9l8.3-10.9c1.8,1,3.7,1.8,5.6,2.6l-3.2,13.3l22.2,5.2&#10;&#9;&#9;&#9;l3.2-13.3c2.1,0.1,4.1,0.2,6.2,0.1l2.6,13.5l22.4-4.3l-2.6-13.5c1.9-0.7,3.8-1.5,5.7-2.4l7.9,11.2l18.6-13.1l-7.9-11.2&#10;&#9;&#9;&#9;c1.5-1.4,2.9-2.9,4.2-4.5l11.8,7l11.7-19.5l-11.8-7c0.7-1.9,1.4-3.9,2-5.8L1055.4,1004.4z M1037.9,1019.1l-1.4,2.4l-10.8-6.5&#10;&#9;&#9;&#9;l-2.7,3.6c-2.6,3.5-5.6,6.7-8.9,9.5l-3.4,3l7.2,10.3l-2.3,1.6l-7.2-10.3l-3.9,2.2c-3.8,2.1-7.8,3.8-12,5.1l-4.3,1.3l2.4,12.4&#10;&#9;&#9;&#9;l-2.7,0.5l-2.4-12.4l-4.5,0.4c-4.4,0.4-8.7,0.3-13-0.3l-4.5-0.6l-2.9,12.3l-2.7-0.6l2.9-12.3l-4.3-1.5c-4.1-1.4-8-3.3-11.7-5.6&#10;&#9;&#9;&#9;l-3.8-2.4l-7.7,10l-2.2-1.7l7.7-10l-3.3-3.1c-3.2-3-6-6.3-8.4-9.9l-2.5-3.7l-11.1,6l-1.3-2.4l11.1-6l-1.7-4.2&#10;&#9;&#9;&#9;c-1.7-4-2.9-8.2-3.6-12.5l-0.8-4.5l-12.6,0.9l-0.2-2.8l12.6-0.9l0.1-4.5c0.1-4.4,0.7-8.7,1.8-12.9l1.1-4.4l-11.8-4.3l0.9-2.6&#10;&#9;&#9;&#9;l11.8,4.3l2-4.1c1.9-3.9,4.2-7.6,6.9-11l2.8-3.5l-9-8.8l1.9-2l9.1,8.8l3.5-2.9c3.3-2.8,7-5.2,10.8-7.2l4-2.1l-4.7-11.7l2.6-1&#10;&#9;&#9;&#9;l4.7,11.7l4.3-1.2c3.3-1,6.8-1.6,10.3-2l4.5-0.4V912h2.8v12.6l4.5,0.4c4.3,0.4,8.6,1.3,12.7,2.7l4.3,1.4l5.2-11.5l2.5,1.1&#10;&#9;&#9;&#9;l-5.2,11.5l3.9,2.3c3.8,2.2,7.3,4.8,10.5,7.7l3.3,3.1l9.4-8.4l1.8,2.1l-9.4,8.4l2.7,3.7c2.6,3.5,4.7,7.3,6.4,11.3l1.8,4.2l12-3.8&#10;&#9;&#9;&#9;l0.8,2.6l-12,3.8l0.9,4.4c0.8,3.9,1.2,8,1.2,12c0,0.2,0,0.5,0,0.7l-0.1,4.8l12.5,1.5l-0.3,2.7l-12.5-1.5l-1,4.4&#10;&#9;&#9;&#9;c-0.9,4.2-2.3,8.4-4.2,12.3l-1.9,4.1L1037.9,1019.1z" style="fill: rgb(50, 38, 56);" transform="matrix(1, 0, 0, 1, 0, 0)"/><path class="st1" d="M870.8,1009.5v-23h-14.3c-1.2-5.3-3.4-10.5-6.3-15.1l10.1-10.1L844.1,945L834,955.1c-4.7-2.9-9.8-5-15.1-6.3&#10;&#9;&#9;v-14.3h-23v14.3c-5.3,1.2-10.5,3.4-15.1,6.3L770.6,945l-16.3,16.3l10.1,10.1c-2.9,4.7-5,9.8-6.3,15.1h-14.3l0,23h14.3&#10;&#9;&#9;c1.2,5.3,3.4,10.5,6.3,15.1l-10.1,10.1l16.3,16.3l10.1-10.1c4.7,2.9,9.8,5,15.1,6.3v14.3h23v-14.3c5.3-1.2,10.5-3.4,15.1-6.3&#10;&#9;&#9;l10.1,10.1l16.3-16.3l-10.1-10.1c2.9-4.7,5-9.8,6.3-15.1H870.8z M807.3,1016c-9.9,0-18-8.1-18-18s8.1-18,18-18c9.9,0,18,8.1,18,18&#10;&#9;&#9;S817.3,1016,807.3,1016z" style="fill: rgb(50, 38, 56);" transform="matrix(1, 0, 0, 1, 0, 0)"/><path class="st1" d="M379.8,491.5c-22.6,0-41,18.4-41,41c0,22.6,18.4,41,41,41s41-18.4,41-41C420.8,509.9,402.4,491.5,379.8,491.5&#10;&#9;&#9;&#9;z M379.8,563.5c-17.1,0-31-13.9-31-31c0-17.1,13.9-31,31-31c17.1,0,31,13.9,31,31C410.8,549.6,396.9,563.5,379.8,563.5z" style="fill: rgb(50, 38, 56);" transform="matrix(1, 0, 0, 1, 0, 0)"/><path class="st1" d="M474.1,550.5h27.7v-36h-27.7c-2.4-12.8-7.5-25.1-14.9-36l19.6-19.6l-25.5-25.5l-19.6,19.6&#10;&#9;&#9;&#9;c-10.8-7.4-23.1-12.4-36-14.9v-27.7h-36v27.7c-12.8,2.4-25.1,7.5-36,14.9l-19.6-19.6L280.8,459l19.6,19.6&#10;&#9;&#9;&#9;c-7.4,10.8-12.5,23.1-14.9,36h-27.7l0,36l27.7,0c2.4,12.8,7.5,25.1,14.9,36L280.8,606l25.5,25.5l19.6-19.6&#10;&#9;&#9;&#9;c10.8,7.4,23.1,12.5,36,14.9v27.7l36,0l0-27.7c12.8-2.4,25.1-7.5,36-14.9l19.6,19.6l25.5-25.5l-19.6-19.6&#10;&#9;&#9;&#9;C466.6,575.6,471.7,563.3,474.1,550.5z M464.7,606l-11.3,11.3l-18.6-18.6l-3.5,2.6c-11.5,8.6-25,14.2-39.2,16.2l-4.3,0.6l0,26.3&#10;&#9;&#9;&#9;l-16,0v-26.3l-4.3-0.6c-14.2-2-27.7-7.6-39.2-16.2l-3.5-2.6l-18.6,18.6L295,606l18.6-18.6L311,584c-8.6-11.5-14.2-25-16.2-39.2&#10;&#9;&#9;&#9;l-0.6-4.3l-26.3,0l0-16h26.3l0.6-4.3c2-14.2,7.6-27.7,16.2-39.2l2.6-3.5L295,459l11.3-11.3l18.6,18.6l3.5-2.6&#10;&#9;&#9;&#9;c11.5-8.6,25-14.2,39.2-16.2l4.3-0.6v-26.3h16v26.3l4.3,0.6c14.2,2,27.7,7.6,39.2,16.2l3.5,2.6l18.6-18.6l11.3,11.3l-18.6,18.6&#10;&#9;&#9;&#9;l2.6,3.5c8.6,11.5,14.2,25,16.2,39.2l0.6,4.3h26.3v16h-26.3l-0.6,4.3c-2,14.2-7.6,27.7-16.2,39.2l-2.6,3.5L464.7,606z" style="fill: rgb(50, 38, 56);" transform="matrix(1, 0, 0, 1, 0, 0)"/><path class="st1" d="M557.1,304.1l19-2.3l-3.3-27.8l-19,2.3c-0.9-3-1.9-6-3.1-9c-0.3-0.6-0.5-1.2-0.8-1.9l16-10.5l-15.3-23.4&#10;&#9;&#9;l-16,10.5c-2.6-2.9-5.4-5.5-8.4-8l9.7-16.5l-24.2-14.1l-9.7,16.5c-3.6-1.4-7.3-2.5-11-3.4l1.3-19.1l-27.9-1.9l-1.3,19.1&#10;&#9;&#9;c-3.8,0.4-7.5,1-11.3,1.9l-7.3-17.7l-25.9,10.7l7.3,17.7c-1.2,0.7-2.3,1.5-3.5,2.3l-13.3-13.8L389,235l13.3,13.8&#10;&#9;&#9;c-0.8,1.1-1.6,2.2-2.4,3.3l-17.4-8l-11.7,25.5l17.4,8c-1,3.7-1.8,7.5-2.3,11.3l-19.1,0.6l0.9,28l19.1-0.6c0.7,3.8,1.8,7.5,3,11.1&#10;&#9;&#9;l-16.9,9.1l13.3,24.7l16.8-9c2.4,3.1,4.9,6,7.6,8.7L399.7,377l22.8,16.2l11-15.6c3.5,1.7,7,3.1,10.7,4.3l-3,18.9l27.7,4.3l3-18.9&#10;&#9;&#9;c3.9,0,7.7-0.3,11.5-0.9l5.8,18.2l26.7-8.4l-5.8-18.3c3.5-1.8,6.8-3.7,9.9-5.9l13.3,13.8l20.2-19.4l-13.3-13.8&#10;&#9;&#9;c2.3-3.1,4.4-6.3,6.2-9.7l18.1,6.4l9.4-26.4l-18.1-6.4C556.5,311.8,556.9,307.9,557.1,304.1z M460.8,375.5l-3-0.5&#10;&#9;&#9;c-10.3-1.8-20-5.7-28.5-11.4l-3.9-2.8c-9.3-7-17-16.2-22.3-27l49.3-20.4c4.2,6.1,11.2,9.8,18.8,9.8c0,0,0,0,0,0&#10;&#9;&#9;c1.3,0,2.7-0.1,4-0.4l20.4,49.3c-0.7,0.3-1.5,0.5-2.2,0.7l-0.2,0.1c-7.1,2.2-14.5,3.3-21.9,3.3C467.7,376.2,464.2,376,460.8,375.5z&#10;&#9;&#9; M395.2,300.2c0-9.8,1.9-19.7,5.8-29.1c3.8-9.2,9.2-17.3,16-24.2l3.2-3.1c5.2-4.7,11-8.6,17.4-11.8l20.4,49.3&#10;&#9;&#9;c-7.3,5.1-11,14-9.4,22.8l-49.3,20.4c-2.2-6.6-3.6-13.3-3.9-20.1L395.2,300.2z M475.3,224.3l2.5,0.2c10.6,0.9,20.7,4,29.8,8.9&#10;&#9;&#9;l4.2,2.5c8.9,5.6,16.5,13,22.5,21.9l0.9,1.4c1.5,2.4,2.9,4.8,4.1,7.4L490.1,287c-4.2-6.1-11.2-9.8-18.8-9.8c-1.3,0-2.7,0.1-4,0.4&#10;&#9;&#9;l-20.4-49.3c7.9-2.7,16.1-4.1,24.4-4.1C472.6,224.2,473.9,224.2,475.3,224.3z M484.4,319c3.6-2.5,6.3-5.9,8-10&#10;&#9;&#9;c1.7-4.1,2.2-8.5,1.4-12.8l49.3-20.4c12.2,36-4.2,75.7-38.3,92.5L484.4,319z" style="fill: rgb(50, 38, 56);" transform="matrix(1, 0, 0, 1, 0, 0)"/><path class="st1" d="M532.8,420.5c-22.6,0-41,18.4-41,41s18.4,41,41,41c22.6,0,41-18.4,41-41S555.4,420.5,532.8,420.5z&#10;&#9;&#9;&#9; M532.8,492.5c-17.1,0-31-13.9-31-31c0-17.1,13.9-31,31-31s31,13.9,31,31C563.8,478.6,549.9,492.5,532.8,492.5z" style="fill: rgb(50, 38, 56);" transform="matrix(1, 0, 0, 1, 0, 0)"/><path class="st1" d="M532.8,447.5c-7.7,0-14,6.3-14,14s6.3,14,14,14c7.7,0,14-6.3,14-14S540.6,447.5,532.8,447.5z M532.8,465.5&#10;&#9;&#9;&#9;c-2.2,0-4-1.8-4-4s1.8-4,4-4c2.2,0,4,1.8,4,4S535,465.5,532.8,465.5z" style="fill: rgb(50, 38, 56);" transform="matrix(1, 0, 0, 1, 0, 0)"/><path class="st1" d="M3.9,555l4.6-22.3l-13.4-2.8c0.1-2.1,0.1-4.1,0-6.2l13.4-2.9l-4.9-22.2l-13.4,2.9c-0.8-1.9-1.6-3.8-2.5-5.6&#10;&#9;&#9;l11-8.2l-13.6-18.3l-11,8.2c-1.5-1.4-3-2.8-4.6-4.1l6.7-12l-19.9-11.1l-6.7,12c-1-0.4-2-0.7-3-1l1.8-13.6l-22.6-3l-1.8,13.6&#10;&#9;&#9;c-2.1,0.1-4.1,0.2-6.1,0.5l-3.9-13.1l-21.8,6.5l3.9,13.1c-1.8,0.9-3.7,1.9-5.4,2.9l-8.9-10.4l-17.3,14.9l8.9,10.4&#10;&#9;&#9;c-1.3,1.6-2.6,3.2-3.7,4.9l-12.4-5.8l-9.7,20.6l12.4,5.8c-0.6,2-1,4-1.4,6l-13.7-0.2l-0.4,22.8l13.7,0.2c0.3,2,0.7,4,1.2,6&#10;&#9;&#9;l-12.6,5.4l9,20.9l12.6-5.4c1.1,1.7,2.3,3.4,3.6,5l-9.3,10.1l16.8,15.4l9.3-10.1c1.3,0.8,2.6,1.6,3.9,2.4c0.5,0.3,0.9,0.5,1.4,0.8&#10;&#9;&#9;l-4.3,13l21.6,7.2l4.3-13c2,0.3,4.1,0.5,6.1,0.7l1.4,13.6l22.7-2.3l-1.4-13.6c2-0.5,3.9-1.2,5.9-1.9l6.8,11.9l19.7-11.3l-6.8-11.9&#10;&#9;&#9;c1.6-1.3,3.1-2.7,4.6-4.1l11.1,8l13.4-18.4l-11.1-8.1c0.9-1.8,1.7-3.7,2.5-5.6L3.9,555z M-98.6,544c-3.4,6.1-11.2,8.3-17.4,4.9&#10;&#9;&#9;c-6.1-3.4-8.3-11.2-4.9-17.4c3.4-6.1,11.2-8.3,17.4-4.9C-97.4,530.1-95.2,537.9-98.6,544z M-89.6,501.8c-6.1-3.4-8.3-11.2-4.9-17.4&#10;&#9;&#9;c3.4-6.1,11.2-8.3,17.4-4.9c6.2,3.4,8.3,11.2,4.9,17.4C-75.7,503.1-83.5,505.3-89.6,501.8z M-79.6,537.8c-5.9-3.3-8-10.8-4.7-16.7&#10;&#9;&#9;c3.3-5.9,10.8-8,16.7-4.7c5.9,3.3,8,10.8,4.7,16.7C-66.3,539-73.8,541.1-79.6,537.8z M-52.8,569.7c-3.4,6.1-11.2,8.3-17.4,4.9&#10;&#9;&#9;c-6.2-3.4-8.3-11.2-4.9-17.4c3.4-6.2,11.2-8.3,17.4-4.9C-51.6,555.8-49.4,563.6-52.8,569.7z M-26.4,522.6&#10;&#9;&#9;c-3.4,6.2-11.2,8.3-17.4,4.9c-6.1-3.4-8.3-11.2-4.9-17.4c3.4-6.1,11.2-8.3,17.4-4.9C-25.1,508.7-23,516.5-26.4,522.6z" style="fill: rgb(50, 38, 56);" transform="matrix(1, 0, 0, 1, 0, 0)"/><path class="st1" d="M44.2,367.6v-23H29.9c-1.2-5.3-3.4-10.5-6.3-15.1l10.1-10.1L17.5,303L7.3,313.2c-4.7-2.9-9.8-5-15.1-6.3v-14.3&#10;&#9;&#9;h-23v14.3c-5.3,1.2-10.5,3.4-15.1,6.3L-56.1,303l-16.3,16.3l10.1,10.1c-2.9,4.7-5,9.8-6.3,15.1h-14.3l0,23h14.3&#10;&#9;&#9;c1.2,5.3,3.4,10.5,6.3,15.1l-10.1,10.1l16.3,16.3L-46,399c4.7,2.9,9.8,5,15.1,6.3v14.3h23v-14.3c5.3-1.2,10.5-3.4,15.1-6.3&#10;&#9;&#9;l10.1,10.1l16.3-16.3l-10.1-10.1c2.9-4.7,5-9.8,6.3-15.1H44.2z M-19.3,374.1c-9.9,0-18-8.1-18-18s8.1-18,18-18c9.9,0,18,8.1,18,18&#10;&#9;&#9;S-9.4,374.1-19.3,374.1z" style="fill: rgb(50, 38, 56);" transform="matrix(1, 0, 0, 1, 0, 0)"/><path class="st1" d="M686.8,357.5c-22.6,0-41,18.4-41,41s18.4,41,41,41c22.6,0,41-18.4,41-41S709.4,357.5,686.8,357.5z&#10;&#9;&#9;&#9; M686.8,429.5c-17.1,0-31-13.9-31-31c0-17.1,13.9-31,31-31c17.1,0,31,13.9,31,31C717.8,415.6,703.9,429.5,686.8,429.5z" style="fill: rgb(50, 38, 56);" transform="matrix(1, 0, 0, 1, 0, 0)"/><path class="st1" d="M781.1,416.5h27.7v-36h-27.7c-2.4-12.8-7.5-25.1-14.9-36l19.6-19.6l-25.5-25.5l-19.6,19.6&#10;&#9;&#9;&#9;c-10.8-7.4-23.1-12.4-36-14.9v-27.7h-36v27.7c-12.8,2.4-25.1,7.5-36,14.9l-19.6-19.6L587.8,325l19.6,19.6&#10;&#9;&#9;&#9;c-7.4,10.8-12.5,23.1-14.9,36h-27.7l0,36l27.7,0c2.4,12.8,7.5,25.1,14.9,36L587.8,472l25.5,25.5l19.6-19.6&#10;&#9;&#9;&#9;c10.8,7.4,23.1,12.5,36,14.9v27.7l36,0v-27.7c12.8-2.4,25.1-7.5,36-14.9l19.6,19.6l25.5-25.5l-19.6-19.6&#10;&#9;&#9;&#9;C773.6,441.6,778.7,429.3,781.1,416.5z M771.7,472l-11.3,11.3l-18.6-18.6l-3.5,2.6c-11.5,8.6-25,14.2-39.2,16.2l-4.3,0.6v26.3&#10;&#9;&#9;&#9;l-16,0v-26.3l-4.3-0.6c-14.2-2-27.7-7.6-39.2-16.2l-3.5-2.6l-18.6,18.6L602,472l18.6-18.6L618,450c-8.6-11.5-14.2-25-16.2-39.2&#10;&#9;&#9;&#9;l-0.6-4.3l-26.3,0l0-16h26.3l0.6-4.3c2-14.2,7.6-27.7,16.2-39.2l2.6-3.5L602,325l11.3-11.3l18.6,18.6l3.5-2.6&#10;&#9;&#9;&#9;c11.5-8.6,25-14.2,39.2-16.2l4.3-0.6v-26.3h16v26.3l4.3,0.6c14.2,2,27.7,7.6,39.2,16.2l3.5,2.6l18.6-18.6l11.3,11.3l-18.6,18.6&#10;&#9;&#9;&#9;l2.6,3.5c8.6,11.5,14.2,25,16.2,39.2l0.6,4.3h26.3v16h-26.3l-0.6,4.3c-2,14.2-7.6,27.7-16.2,39.2l-2.6,3.5L771.7,472z" style="fill: rgb(50, 38, 56);" transform="matrix(1, 0, 0, 1, 0, 0)"/><path class="st1" d="M914.8,184.4l19-2.3l-3.3-27.8l-19,2.3c-0.9-3-1.9-6-3.1-9c-0.3-0.6-0.5-1.2-0.8-1.9l16-10.5l-15.3-23.4&#10;&#9;&#9;l-16,10.5c-2.6-2.9-5.4-5.5-8.4-8l9.7-16.5l-24.2-14.1l-9.7,16.5c-3.6-1.4-7.3-2.5-11-3.4l1.3-19.1l-27.9-1.9L820.7,95&#10;&#9;&#9;c-3.8,0.4-7.5,1-11.3,1.9l-7.3-17.7l-25.9,10.7l7.3,17.7c-1.2,0.7-2.3,1.5-3.5,2.3L766.8,96l-20.2,19.4l13.3,13.8&#10;&#9;&#9;c-0.8,1.1-1.6,2.2-2.4,3.3l-17.4-8L728.5,150l17.4,8c-1,3.7-1.8,7.5-2.3,11.3l-19.1,0.6l0.9,28l19.1-0.6c0.7,3.8,1.8,7.5,3,11.1&#10;&#9;&#9;l-16.9,9.1l13.3,24.7l16.8-9c2.4,3.1,4.9,6,7.6,8.7l-11.1,15.6l22.8,16.2l11-15.6c3.5,1.7,7,3.1,10.7,4.3l-3,18.9l27.7,4.3l3-18.9&#10;&#9;&#9;c3.9,0,7.7-0.3,11.5-0.9l5.8,18.2l26.7-8.4l-5.8-18.3c3.5-1.8,6.8-3.7,9.9-5.9l13.3,13.8l20.2-19.4L897.8,232&#10;&#9;&#9;c2.3-3.1,4.4-6.3,6.2-9.7l18.1,6.4l9.4-26.4l-18.1-6.4C914.2,192.1,914.6,188.3,914.8,184.4z M818.5,255.9l-3-0.5&#10;&#9;&#9;c-10.3-1.8-20-5.7-28.5-11.4l-3.9-2.8c-9.3-7-17-16.2-22.3-27l49.3-20.4c4.2,6.1,11.2,9.8,18.8,9.8c0,0,0,0,0,0&#10;&#9;&#9;c1.3,0,2.7-0.1,4-0.4l20.4,49.3c-0.7,0.3-1.5,0.5-2.2,0.7l-0.2,0.1c-7.1,2.2-14.5,3.3-21.9,3.3&#10;&#9;&#9;C825.4,256.6,821.9,256.4,818.5,255.9z M752.9,180.6c0-9.8,1.9-19.7,5.8-29.1c3.8-9.2,9.2-17.3,16-24.2l3.2-3.1&#10;&#9;&#9;c5.2-4.7,11-8.6,17.4-11.8l20.4,49.3c-7.3,5.1-11,14-9.4,22.8L756.9,205c-2.2-6.6-3.5-13.3-3.9-20.1L752.9,180.6z M833,104.7&#10;&#9;&#9;l2.5,0.2c10.6,0.9,20.7,4,29.8,8.9l4.2,2.5c8.9,5.6,16.5,13,22.5,21.9l0.9,1.4c1.5,2.4,2.9,4.8,4.1,7.4l-49.3,20.4&#10;&#9;&#9;c-4.2-6.1-11.2-9.8-18.8-9.8c-1.3,0-2.7,0.1-4,0.4l-20.4-49.3c7.9-2.7,16.1-4.1,24.4-4.1C830.3,104.6,831.6,104.6,833,104.7z&#10;&#9;&#9; M842.1,199.4c3.6-2.5,6.3-5.9,8-10c1.7-4.1,2.2-8.5,1.4-12.8l49.3-20.4c12.2,36-4.2,75.7-38.3,92.5L842.1,199.4z" style="fill: rgb(50, 38, 56);" transform="matrix(1, 0, 0, 1, 0, 0)"/><path class="st1" d="M877.2,355.6c-22.6,0-41,18.4-41,41c0,22.6,18.4,41,41,41c22.6,0,41-18.4,41-41&#10;&#9;&#9;&#9;C918.2,374,899.8,355.6,877.2,355.6z M877.2,427.6c-17.1,0-31-13.9-31-31c0-17.1,13.9-31,31-31c17.1,0,31,13.9,31,31&#10;&#9;&#9;&#9;C908.2,413.7,894.3,427.6,877.2,427.6z" style="fill: rgb(50, 38, 56);" transform="matrix(1, 0, 0, 1, 0, 0)"/><path class="st1" d="M877.2,382.6c-7.7,0-14,6.3-14,14c0,7.7,6.3,14,14,14c7.7,0,14-6.3,14-14&#10;&#9;&#9;&#9;C891.2,388.9,884.9,382.6,877.2,382.6z M877.2,400.6c-2.2,0-4-1.8-4-4c0-2.2,1.8-4,4-4c2.2,0,4,1.8,4,4&#10;&#9;&#9;&#9;C881.2,398.8,879.4,400.6,877.2,400.6z" style="fill: rgb(50, 38, 56);" transform="matrix(1, 0, 0, 1, 0, 0)"/><path class="st1" d="M635.5,131.4c-9.8,0-17.8,8-17.8,17.8s8,17.8,17.8,17.8c9.8,0,17.8-8,17.8-17.8S645.3,131.4,635.5,131.4z&#10;&#9;&#9;&#9; M635.5,157c-4.3,0-7.8-3.5-7.8-7.8c0-4.3,3.5-7.8,7.8-7.8c4.3,0,7.8,3.5,7.8,7.8C643.2,153.5,639.7,157,635.5,157z" style="fill: rgb(50, 38, 56);" transform="matrix(1, 0, 0, 1, 0, 0)"/><path class="st1" d="M715.2,170l2.6-22.6l-13.6-1.6c-0.1-2.1-0.3-4.1-0.6-6.1l13.1-4.1l-6.8-21.7l-13.1,4.1c-0.9-1.8-2-3.6-3-5.4&#10;&#9;&#9;&#9;l10.2-9.1l-15.1-17l-10.2,9.1c-1.6-1.3-3.3-2.5-5-3.6l5.6-12.5l-20.8-9.3l-5.6,12.5c-2-0.5-4-0.9-6-1.3V67.6h-22.8v13.7&#10;&#9;&#9;&#9;c-1,0.2-2.1,0.4-3.1,0.6l-5.1-12.7l-21.2,8.4l5.1,12.7c-1.8,1.1-3.5,2.2-5.1,3.4l-9.8-9.6L569,100.5l9.8,9.5&#10;&#9;&#9;&#9;c-1.2,1.7-2.3,3.4-3.3,5.2l-12.9-4.7l-7.8,21.4l12.9,4.7c-0.4,2-0.7,4.1-0.8,6.1l-13.7,1l1.7,22.7l13.7-1c0.5,2,1.1,4,1.7,5.9&#10;&#9;&#9;&#9;l-12.1,6.5l10.8,20l12.1-6.5c1.3,1.6,2.6,3.2,4,4.7l-8.3,10.9l18.1,13.9l8.3-10.9c1.8,1,3.7,1.8,5.6,2.6l-3.2,13.3l22.2,5.2&#10;&#9;&#9;&#9;l3.2-13.3c2.1,0.1,4.1,0.2,6.2,0.1l2.6,13.5l22.4-4.3l-2.6-13.5c1.9-0.7,3.8-1.5,5.7-2.4l7.9,11.2l18.6-13.1l-7.9-11.2&#10;&#9;&#9;&#9;c1.5-1.4,2.9-2.9,4.2-4.5l11.8,7l11.7-19.5l-11.8-7c0.7-1.9,1.4-3.9,2-5.8L715.2,170z M697.7,184.7l-1.4,2.4l-10.8-6.5l-2.7,3.6&#10;&#9;&#9;&#9;c-2.6,3.5-5.6,6.7-8.9,9.5l-3.4,3l7.2,10.3l-2.3,1.6l-7.2-10.3l-3.9,2.2c-3.8,2.1-7.8,3.8-12,5.1l-4.3,1.3l2.4,12.4l-2.7,0.5&#10;&#9;&#9;&#9;l-2.4-12.4l-4.5,0.4c-4.4,0.4-8.7,0.3-13-0.3l-4.5-0.6l-2.9,12.3l-2.7-0.6l2.9-12.3l-4.3-1.5c-4.1-1.4-8-3.3-11.7-5.6l-3.8-2.4&#10;&#9;&#9;&#9;l-7.7,10l-2.2-1.7l7.7-10l-3.3-3.1c-3.2-3-6-6.3-8.4-9.9l-2.5-3.7l-11.1,6l-1.3-2.4l11.1-6l-1.7-4.2c-1.7-4-2.9-8.2-3.6-12.5&#10;&#9;&#9;&#9;l-0.8-4.5l-12.6,0.9l-0.2-2.8l12.6-0.9l0.1-4.5c0.1-4.4,0.7-8.7,1.8-12.9l1.1-4.4l-11.8-4.3l0.9-2.6l11.8,4.3l2-4.1&#10;&#9;&#9;&#9;c1.9-3.9,4.2-7.6,6.9-11l2.8-3.5l-9-8.8l1.9-2l9.1,8.8l3.5-2.9c3.3-2.8,7-5.2,10.8-7.2l4-2.1l-4.7-11.7l2.6-1l4.7,11.7l4.3-1.2&#10;&#9;&#9;&#9;c3.3-1,6.8-1.6,10.3-2l4.5-0.4V77.6h2.8v12.6l4.5,0.4c4.3,0.4,8.6,1.3,12.7,2.7l4.3,1.4l5.2-11.5l2.5,1.1l-5.2,11.5l3.9,2.3&#10;&#9;&#9;&#9;c3.8,2.2,7.3,4.8,10.5,7.7l3.3,3.1l9.4-8.4l1.8,2.1l-9.4,8.4l2.7,3.7c2.6,3.5,4.7,7.3,6.4,11.3l1.8,4.2l12-3.8l0.8,2.6l-12,3.8&#10;&#9;&#9;&#9;l0.9,4.4c0.8,3.9,1.2,8,1.2,12c0,0.2,0,0.5,0,0.7l-0.1,4.8l12.5,1.5l-0.3,2.7l-12.5-1.5l-1,4.4c-0.9,4.2-2.3,8.4-4.2,12.3&#10;&#9;&#9;&#9;l-1.9,4.1L697.7,184.7z" style="fill: rgb(50, 38, 56);" transform="matrix(1, 0, 0, 1, 0, 0)"/><path class="st1" d="M1003.9,555l4.6-22.3l-13.4-2.8c0.1-2.1,0.1-4.1,0-6.2l13.4-2.9l-4.9-22.2l-13.4,2.9c-0.8-1.9-1.6-3.8-2.5-5.6&#10;&#9;&#9;l11-8.2l-13.6-18.3l-11,8.2c-1.5-1.4-3-2.8-4.6-4.1l6.7-12l-19.9-11.1l-6.7,12c-1-0.4-2-0.7-3-1l1.8-13.6l-22.6-3l-1.8,13.6&#10;&#9;&#9;c-2.1,0.1-4.1,0.2-6.1,0.5l-3.9-13.1l-21.8,6.5l3.9,13.1c-1.8,0.9-3.7,1.9-5.4,2.9l-8.9-10.4l-17.3,14.9l8.9,10.4&#10;&#9;&#9;c-1.3,1.6-2.6,3.2-3.7,4.9l-12.4-5.8l-9.7,20.6l12.4,5.8c-0.6,2-1,4-1.4,6l-13.7-0.2l-0.4,22.8l13.7,0.2c0.3,2,0.7,4,1.2,6&#10;&#9;&#9;l-12.6,5.4l9,20.9l12.6-5.4c1.1,1.7,2.3,3.4,3.6,5l-9.3,10.1l16.8,15.4l9.3-10.1c1.3,0.8,2.6,1.6,3.9,2.4c0.5,0.3,0.9,0.5,1.4,0.8&#10;&#9;&#9;l-4.3,13l21.6,7.2l4.3-13c2,0.3,4.1,0.5,6.1,0.7l1.4,13.6l22.7-2.3l-1.4-13.6c2-0.5,3.9-1.2,5.9-1.9l6.8,11.9l19.7-11.3l-6.8-11.9&#10;&#9;&#9;c1.6-1.3,3.1-2.7,4.6-4.1l11.1,8l13.4-18.4l-11.1-8.1c0.9-1.8,1.7-3.7,2.5-5.6L1003.9,555z M901.4,544c-3.4,6.1-11.2,8.3-17.4,4.9&#10;&#9;&#9;c-6.1-3.4-8.3-11.2-4.9-17.4c3.4-6.1,11.2-8.3,17.4-4.9C902.6,530.1,904.8,537.9,901.4,544z M910.4,501.8&#10;&#9;&#9;c-6.1-3.4-8.3-11.2-4.9-17.4c3.4-6.1,11.2-8.3,17.4-4.9c6.2,3.4,8.3,11.2,4.9,17.4C924.3,503.1,916.5,505.3,910.4,501.8z&#10;&#9;&#9; M920.4,537.8c-5.9-3.3-8-10.8-4.7-16.7c3.3-5.9,10.8-8,16.7-4.7c5.9,3.3,8,10.8,4.7,16.7C933.7,539,926.2,541.1,920.4,537.8z&#10;&#9;&#9; M947.2,569.7c-3.4,6.1-11.2,8.3-17.4,4.9c-6.2-3.4-8.3-11.2-4.9-17.4c3.4-6.2,11.2-8.3,17.4-4.9&#10;&#9;&#9;C948.4,555.8,950.6,563.6,947.2,569.7z M973.6,522.6c-3.4,6.2-11.2,8.3-17.4,4.9c-6.1-3.4-8.3-11.2-4.9-17.4&#10;&#9;&#9;c3.4-6.1,11.2-8.3,17.4-4.9S977,516.5,973.6,522.6z" style="fill: rgb(50, 38, 56);" transform="matrix(1, 0, 0, 1, 0, 0)"/><path class="st1" d="M1044.2,367.6v-23h-14.3c-1.2-5.3-3.4-10.5-6.3-15.1l10.1-10.1l-16.3-16.3l-10.1,10.1c-4.7-2.9-9.8-5-15.1-6.3&#10;&#9;&#9;v-14.3h-23v14.3c-5.3,1.2-10.5,3.4-15.1,6.3L943.9,303l-16.3,16.3l10.1,10.1c-2.9,4.7-5,9.8-6.3,15.1h-14.3l0,23h14.3&#10;&#9;&#9;c1.2,5.3,3.4,10.5,6.3,15.1l-10.1,10.1l16.3,16.3L954,399c4.7,2.9,9.8,5,15.1,6.3v14.3h23v-14.3c5.3-1.2,10.5-3.4,15.1-6.3&#10;&#9;&#9;l10.1,10.1l16.3-16.3l-10.1-10.1c2.9-4.7,5-9.8,6.3-15.1H1044.2z M980.7,374.1c-9.9,0-18-8.1-18-18s8.1-18,18-18s18,8.1,18,18&#10;&#9;&#9;S990.6,374.1,980.7,374.1z" style="fill: rgb(50, 38, 56);" transform="matrix(1, 0, 0, 1, 0, 0)"/><path class="st1" d="M510.1-86.3h27.7v-36h-27.7c-2.4-12.8-7.5-25.1-14.9-36l19.6-19.6l-25.5-25.5l-19.6,19.6&#10;&#9;&#9;&#9;c-10.8-7.4-23.1-12.5-36-14.9v-27.7h-36v27.7c-12.8,2.4-25.1,7.5-36,14.9l-19.6-19.6l-25.5,25.5l19.6,19.6&#10;&#9;&#9;&#9;c-7.4,10.8-12.5,23.1-14.9,36h-27.7l0,36l27.7,0c2.4,12.8,7.5,25.1,14.9,36l-19.6,19.6l25.5,25.5l19.6-19.6&#10;&#9;&#9;&#9;c10.8,7.4,23.1,12.5,36,14.9v27.7l36,0V-10c12.8-2.4,25.1-7.5,36-14.9l19.6,19.6l25.5-25.5l-19.6-19.6&#10;&#9;&#9;&#9;C502.6-61.2,507.7-73.5,510.1-86.3z M500.7-30.8l-11.3,11.3L470.8-38l-3.5,2.6c-11.5,8.6-25,14.2-39.2,16.2l-4.3,0.6V7.7l-16,0&#10;&#9;&#9;&#9;v-26.3l-4.3-0.6c-14.2-2-27.7-7.6-39.2-16.2l-3.5-2.6l-18.6,18.6L331-30.8l18.6-18.6l-2.6-3.5c-8.6-11.5-14.2-25-16.2-39.2&#10;&#9;&#9;&#9;l-0.6-4.3l-26.3,0l0-16h26.3l0.6-4.3c2-14.2,7.6-27.7,16.2-39.2l2.6-3.5L331-177.8l11.3-11.3l18.6,18.6l3.5-2.6&#10;&#9;&#9;&#9;c11.5-8.6,25-14.2,39.2-16.2l4.3-0.6v-26.3h16v26.3l4.3,0.6c14.2,2,27.7,7.6,39.2,16.2l3.5,2.6l18.6-18.6l11.3,11.3l-18.6,18.6&#10;&#9;&#9;&#9;l2.6,3.5c8.6,11.5,14.2,25,16.2,39.2l0.6,4.3h26.3v16h-26.3L501-92c-2,14.2-7.6,27.7-16.2,39.2l-2.6,3.5L500.7-30.8z" style="fill: rgb(50, 38, 56);" transform="matrix(1, 0, 0, 1, 0, 0)"/><path class="st1" d="M118.8,320.5c-22.6,0-41,18.4-41,41s18.4,41,41,41s41-18.4,41-41S141.4,320.5,118.8,320.5z M118.8,392.5&#10;&#9;&#9;&#9;c-17.1,0-31-13.9-31-31s13.9-31,31-31c17.1,0,31,13.9,31,31S135.9,392.5,118.8,392.5z" style="fill: rgb(50, 38, 56);" transform="matrix(1, 0, 0, 1, 0, 0)"/><path class="st1" d="M118.8,347.5c-7.7,0-14,6.3-14,14s6.3,14,14,14s14-6.3,14-14S126.6,347.5,118.8,347.5z M118.8,365.5&#10;&#9;&#9;&#9;c-2.2,0-4-1.8-4-4s1.8-4,4-4c2.2,0,4,1.8,4,4S121,365.5,118.8,365.5z" style="fill: rgb(50, 38, 56);" transform="matrix(1, 0, 0, 1, 0, 0)"/><path class="st1" d="M713.5,0.1l4.6-22.3L704.8-25c0.1-2.1,0.1-4.1,0-6.2l13.4-2.9l-4.9-22.2l-13.4,2.9c-0.8-1.9-1.6-3.8-2.5-5.6&#10;&#9;&#9;l11-8.2l-13.6-18.3l-11,8.2c-1.5-1.4-3-2.8-4.6-4.1l6.7-12L666-104.4l-6.7,12c-1-0.4-2-0.7-3-1l1.8-13.6l-22.6-3l-1.8,13.6&#10;&#9;&#9;c-2.1,0.1-4.1,0.2-6.1,0.5l-3.9-13.1l-21.8,6.5l3.9,13.1c-1.8,0.9-3.7,1.9-5.4,2.9L591.3-97l-17.3,14.9l8.9,10.4&#10;&#9;&#9;c-1.3,1.6-2.6,3.2-3.7,4.9l-12.4-5.8L557.2-52l12.4,5.8c-0.6,2-1,4-1.4,6l-13.7-0.2l-0.4,22.8l13.7,0.2c0.3,2,0.7,4,1.2,6L556.5-6&#10;&#9;&#9;l9,20.9l12.6-5.4c1.1,1.7,2.3,3.4,3.6,5l-9.3,10.1l16.8,15.4l9.3-10.1c1.3,0.8,2.6,1.6,3.9,2.4c0.5,0.3,0.9,0.5,1.4,0.8l-4.3,13&#10;&#9;&#9;l21.6,7.2l4.3-13c2,0.3,4.1,0.5,6.1,0.7l1.4,13.6l22.7-2.3l-1.4-13.6c2-0.5,3.9-1.2,5.9-1.9l6.8,11.9l19.7-11.3l-6.8-11.9&#10;&#9;&#9;c1.6-1.3,3.1-2.7,4.6-4.1l11.1,8L708.7,11l-11.1-8.1c0.9-1.8,1.7-3.7,2.5-5.6L713.5,0.1z M611-10.8c-3.4,6.1-11.2,8.3-17.4,4.9&#10;&#9;&#9;c-6.1-3.4-8.3-11.2-4.9-17.4c3.4-6.1,11.2-8.3,17.4-4.9C612.3-24.8,614.5-17,611-10.8z M620-53.1c-6.1-3.4-8.3-11.2-4.9-17.4&#10;&#9;&#9;c3.4-6.1,11.2-8.3,17.4-4.9c6.2,3.4,8.3,11.2,4.9,17.4C634-51.8,626.2-49.6,620-53.1z M630-17.1c-5.9-3.3-8-10.8-4.7-16.7&#10;&#9;&#9;c3.3-5.9,10.8-8,16.7-4.7c5.9,3.3,8,10.8,4.7,16.7C643.4-15.9,635.9-13.8,630-17.1z M656.8,14.9c-3.4,6.1-11.2,8.3-17.4,4.9&#10;&#9;&#9;c-6.2-3.4-8.3-11.2-4.9-17.4c3.4-6.2,11.2-8.3,17.4-4.9C658.1,0.9,660.3,8.7,656.8,14.9z M683.2-32.2c-3.4,6.2-11.2,8.3-17.4,4.9&#10;&#9;&#9;c-6.1-3.4-8.3-11.2-4.9-17.4s11.2-8.3,17.4-4.9C684.5-46.2,686.7-38.4,683.2-32.2z" style="fill: rgb(50, 38, 56);" transform="matrix(1, 0, 0, 1, 0, 0)"/><path class="st1" d="M415.8,854.7c-22.6,0-41,18.4-41,41c0,22.6,18.4,41,41,41s41-18.4,41-41C456.8,873.1,438.4,854.7,415.8,854.7&#10;&#9;&#9;&#9;z M415.8,926.7c-17.1,0-31-13.9-31-31c0-17.1,13.9-31,31-31c17.1,0,31,13.9,31,31C446.8,912.8,432.9,926.7,415.8,926.7z" style="fill: rgb(50, 38, 56);" transform="matrix(1, 0, 0, 1, 0, 0)"/><path class="st1" d="M510.1,913.7h27.7v-36h-27.7c-2.4-12.8-7.5-25.1-14.9-36l19.6-19.6l-25.5-25.5l-19.6,19.6&#10;&#9;&#9;&#9;c-10.8-7.4-23.1-12.4-36-14.9v-27.7h-36v27.7c-12.8,2.4-25.1,7.5-36,14.9l-19.6-19.6l-25.5,25.5l19.6,19.6&#10;&#9;&#9;&#9;c-7.4,10.8-12.5,23.1-14.9,36h-27.7l0,36l27.7,0c2.4,12.8,7.5,25.1,14.9,36l-19.6,19.6l25.5,25.5l19.6-19.6&#10;&#9;&#9;&#9;c10.8,7.4,23.1,12.5,36,14.9v27.7l36,0V990c12.8-2.4,25.1-7.5,36-14.9l19.6,19.6l25.5-25.5l-19.6-19.6&#10;&#9;&#9;&#9;C502.6,938.8,507.7,926.5,510.1,913.7z M500.7,969.2l-11.3,11.3L470.8,962l-3.5,2.6c-11.5,8.6-25,14.2-39.2,16.2l-4.3,0.6v26.3&#10;&#9;&#9;&#9;l-16,0v-26.3l-4.3-0.6c-14.2-2-27.7-7.6-39.2-16.2l-3.5-2.6l-18.6,18.6L331,969.2l18.6-18.6l-2.6-3.5c-8.6-11.5-14.2-25-16.2-39.2&#10;&#9;&#9;&#9;l-0.6-4.3l-26.3,0l0-16h26.3l0.6-4.3c2-14.2,7.6-27.7,16.2-39.2l2.6-3.5L331,822.2l11.3-11.3l18.6,18.6l3.5-2.6&#10;&#9;&#9;&#9;c11.5-8.6,25-14.2,39.2-16.2l4.3-0.6v-26.3h16V810l4.3,0.6c14.2,2,27.7,7.6,39.2,16.2l3.5,2.6l18.6-18.6l11.3,11.3l-18.6,18.6&#10;&#9;&#9;&#9;l2.6,3.5c8.6,11.5,14.2,25,16.2,39.2l0.6,4.3h26.3v16h-26.3L501,908c-2,14.2-7.6,27.7-16.2,39.2l-2.6,3.5L500.7,969.2z" style="fill: rgb(50, 38, 56);" transform="matrix(1, 0, 0, 1, 0, 0)"/><path class="st1" d="M224.1,547.1l19-2.3l-3.3-27.8l-19,2.3c-0.9-3-1.9-6-3.1-9c-0.3-0.6-0.5-1.2-0.8-1.9l16-10.5l-15.3-23.4&#10;&#9;&#9;l-16,10.5c-2.6-2.9-5.4-5.5-8.4-8l9.7-16.5l-24.2-14.1l-9.7,16.5c-3.6-1.4-7.3-2.5-11-3.4l1.3-19.1l-27.9-1.9l-1.3,19.1&#10;&#9;&#9;c-3.8,0.4-7.5,1-11.3,1.9l-7.3-17.7l-25.9,10.7l7.3,17.7c-1.2,0.7-2.3,1.5-3.5,2.3l-13.3-13.8L56,478l13.3,13.8&#10;&#9;&#9;c-0.8,1.1-1.6,2.2-2.4,3.3l-17.4-8l-11.7,25.5l17.4,8c-1,3.7-1.8,7.5-2.3,11.3l-19.1,0.6l0.9,28l19.1-0.6c0.7,3.8,1.8,7.5,3,11.1&#10;&#9;&#9;L40,580.1l13.3,24.7l16.8-9c2.4,3.1,4.9,6,7.6,8.7L66.7,620l22.8,16.2l11-15.6c3.5,1.7,7,3.1,10.7,4.3l-3,18.9l27.7,4.3l3-18.9&#10;&#9;&#9;c3.9,0,7.7-0.3,11.5-0.9l5.8,18.2l26.7-8.4l-5.8-18.3c3.5-1.8,6.8-3.7,9.9-5.9l13.3,13.8l20.2-19.4l-13.3-13.8&#10;&#9;&#9;c2.3-3.1,4.4-6.3,6.2-9.7l18.1,6.4l9.4-26.4l-18.1-6.4C223.5,554.8,223.9,550.9,224.1,547.1z M127.8,618.5l-3-0.5&#10;&#9;&#9;c-10.3-1.8-20-5.7-28.5-11.4l-3.9-2.8c-9.3-7-17-16.2-22.3-27l49.3-20.4c4.2,6.1,11.2,9.8,18.8,9.8c0,0,0,0,0,0&#10;&#9;&#9;c1.3,0,2.7-0.1,4-0.4l20.4,49.3c-0.7,0.3-1.5,0.5-2.2,0.7l-0.2,0.1c-7.1,2.2-14.5,3.3-21.9,3.3C134.7,619.2,131.2,619,127.8,618.5z&#10;&#9;&#9; M62.2,543.2c0-9.8,1.9-19.7,5.8-29.1c3.8-9.2,9.2-17.3,16-24.2l3.2-3.1c5.2-4.7,11-8.6,17.4-11.8l20.4,49.3&#10;&#9;&#9;c-7.3,5.1-11,14-9.4,22.8l-49.3,20.4c-2.2-6.6-3.5-13.3-3.9-20.1L62.2,543.2z M142.3,467.3l2.5,0.2c10.6,0.9,20.7,4,29.8,8.9&#10;&#9;&#9;l4.2,2.5c8.9,5.6,16.5,13,22.5,21.9l0.9,1.4c1.5,2.4,2.9,4.8,4.1,7.4L157.1,530c-4.2-6.1-11.2-9.8-18.8-9.8c-1.3,0-2.7,0.1-4,0.4&#10;&#9;&#9;l-20.4-49.3c7.9-2.7,16.1-4.1,24.4-4.1C139.6,467.2,140.9,467.2,142.3,467.3z M151.4,562c3.6-2.5,6.3-5.9,8-10&#10;&#9;&#9;c1.7-4.1,2.2-8.5,1.4-12.8l49.3-20.4c12.2,36-4.2,75.7-38.3,92.5L151.4,562z" style="fill: rgb(50, 38, 56);" transform="matrix(1, 0, 0, 1, 0, 0)"/><path class="st1" d="M586.8,800.7c-22.6,0-41,18.4-41,41c0,22.6,18.4,41,41,41c22.6,0,41-18.4,41-41&#10;&#9;&#9;&#9;C627.8,819.1,609.4,800.7,586.8,800.7z M586.8,872.7c-17.1,0-31-13.9-31-31c0-17.1,13.9-31,31-31s31,13.9,31,31&#10;&#9;&#9;&#9;C617.8,858.8,603.9,872.7,586.8,872.7z" style="fill: rgb(50, 38, 56);" transform="matrix(1, 0, 0, 1, 0, 0)"/><path class="st1" d="M586.8,827.7c-7.7,0-14,6.3-14,14c0,7.7,6.3,14,14,14c7.7,0,14-6.3,14-14C600.8,834,594.6,827.7,586.8,827.7z&#10;&#9;&#9;&#9; M586.8,845.7c-2.2,0-4-1.8-4-4c0-2.2,1.8-4,4-4c2.2,0,4,1.8,4,4C590.8,843.9,589,845.7,586.8,845.7z" style="fill: rgb(50, 38, 56);" transform="matrix(1, 0, 0, 1, 0, 0)"/><path class="st1" d="M512,689.4c-9.8,0-17.8,8-17.8,17.8s8,17.8,17.8,17.8c9.8,0,17.8-8,17.8-17.8S521.8,689.4,512,689.4z&#10;&#9;&#9;&#9; M512,715c-4.3,0-7.8-3.5-7.8-7.8c0-4.3,3.5-7.8,7.8-7.8c4.3,0,7.8,3.5,7.8,7.8C519.8,711.5,516.3,715,512,715z" style="fill: rgb(50, 38, 56);" transform="matrix(1, 0, 0, 1, 0, 0)"/><path class="st1" d="M591.8,728l2.6-22.6l-13.6-1.6c-0.1-2.1-0.3-4.1-0.6-6.1l13.1-4.1l-6.8-21.7l-13.1,4.1c-0.9-1.8-2-3.6-3-5.4&#10;&#9;&#9;&#9;l10.2-9.1l-15.1-17l-10.2,9.1c-1.6-1.3-3.3-2.5-5-3.6l5.6-12.5l-20.8-9.3l-5.6,12.5c-2-0.5-4-0.9-6-1.3v-13.7h-22.8v13.7&#10;&#9;&#9;&#9;c-1,0.2-2.1,0.4-3.1,0.6l-5.1-12.7l-21.2,8.4l5.1,12.7c-1.8,1.1-3.5,2.2-5.1,3.4l-9.8-9.6l-15.9,16.3l9.8,9.5&#10;&#9;&#9;&#9;c-1.2,1.7-2.3,3.4-3.3,5.2l-12.9-4.7l-7.8,21.4l12.9,4.7c-0.4,2-0.7,4.1-0.8,6.1l-13.7,1l1.7,22.7l13.7-1c0.5,2,1.1,4,1.7,5.9&#10;&#9;&#9;&#9;l-12.1,6.5l10.8,20l12.1-6.5c1.3,1.6,2.6,3.2,4,4.7l-8.3,10.9l18.1,13.9l8.3-10.9c1.8,1,3.7,1.8,5.6,2.6l-3.2,13.3l22.2,5.2&#10;&#9;&#9;&#9;l3.2-13.3c2.1,0.1,4.1,0.2,6.2,0.1l2.6,13.5l22.4-4.3l-2.6-13.5c1.9-0.7,3.8-1.5,5.7-2.4l7.9,11.2l18.6-13.1l-7.9-11.2&#10;&#9;&#9;&#9;c1.5-1.4,2.9-2.9,4.2-4.5l11.8,7l11.7-19.5l-11.8-7c0.7-1.9,1.4-3.9,2-5.8L591.8,728z M574.2,742.7l-1.4,2.4l-10.8-6.5l-2.7,3.6&#10;&#9;&#9;&#9;c-2.6,3.5-5.6,6.7-8.9,9.5l-3.4,3l7.2,10.3l-2.3,1.6l-7.2-10.3l-3.9,2.2c-3.8,2.1-7.8,3.8-12,5.1l-4.3,1.3l2.4,12.4l-2.7,0.5&#10;&#9;&#9;&#9;l-2.4-12.4l-4.5,0.4c-4.4,0.4-8.7,0.3-13-0.3l-4.5-0.6l-2.9,12.3l-2.7-0.6l2.9-12.3l-4.3-1.5c-4.1-1.4-8-3.3-11.7-5.6l-3.8-2.4&#10;&#9;&#9;&#9;l-7.7,10l-2.2-1.7l7.7-10l-3.3-3.1c-3.2-3-6-6.3-8.4-9.9l-2.5-3.7l-11.1,6l-1.3-2.4l11.1-6l-1.7-4.2c-1.7-4-2.9-8.2-3.6-12.5&#10;&#9;&#9;&#9;l-0.8-4.5l-12.6,0.9l-0.2-2.8l12.6-0.9l0.1-4.5c0.1-4.4,0.7-8.7,1.8-12.9l1.1-4.4l-11.8-4.3l0.9-2.6l11.8,4.3l2-4.1&#10;&#9;&#9;&#9;c1.9-3.9,4.2-7.6,6.9-11l2.8-3.5l-9-8.8l1.9-2l9.1,8.8l3.5-2.9c3.3-2.8,7-5.2,10.8-7.2l4-2.1l-4.7-11.7l2.6-1l4.7,11.7l4.3-1.2&#10;&#9;&#9;&#9;c3.3-1,6.8-1.6,10.3-2l4.5-0.4v-12.6h2.8v12.6l4.5,0.4c4.3,0.4,8.6,1.3,12.7,2.7l4.3,1.4l5.2-11.5l2.5,1.1l-5.2,11.5l3.9,2.3&#10;&#9;&#9;&#9;c3.8,2.2,7.3,4.8,10.5,7.7l3.3,3.1l9.4-8.4l1.8,2.1L557,669l2.7,3.7c2.6,3.5,4.7,7.3,6.4,11.3l1.8,4.2l12-3.8l0.8,2.6l-12,3.8&#10;&#9;&#9;&#9;l0.9,4.4c0.8,3.9,1.2,8,1.2,12c0,0.2,0,0.5,0,0.7l-0.1,4.8l12.5,1.5l-0.3,2.7l-12.5-1.5l-1,4.4c-0.9,4.2-2.3,8.4-4.2,12.3&#10;&#9;&#9;&#9;l-1.9,4.1L574.2,742.7z" style="fill: rgb(50, 38, 56);" transform="matrix(1, 0, 0, 1, 0, 0)"/><path class="st1" d="M713.5,1000.1l4.6-22.3l-13.4-2.8c0.1-2.1,0.1-4.1,0-6.2l13.4-2.9l-4.9-22.2l-13.4,2.9&#10;&#9;&#9;c-0.8-1.9-1.6-3.8-2.5-5.6l11-8.2l-13.6-18.3l-11,8.2c-1.5-1.4-3-2.8-4.6-4.1l6.7-12L666,895.6l-6.7,12c-1-0.4-2-0.7-3-1l1.8-13.6&#10;&#9;&#9;l-22.6-3l-1.8,13.6c-2.1,0.1-4.1,0.2-6.1,0.5l-3.9-13.1l-21.8,6.5l3.9,13.1c-1.8,0.9-3.7,1.9-5.4,2.9l-8.9-10.4l-17.3,14.9&#10;&#9;&#9;l8.9,10.4c-1.3,1.6-2.6,3.2-3.7,4.9l-12.4-5.8l-9.7,20.6l12.4,5.8c-0.6,2-1,4-1.4,6l-13.7-0.2l-0.4,22.8l13.7,0.2&#10;&#9;&#9;c0.3,2,0.7,4,1.2,6l-12.6,5.4l9,20.9l12.6-5.4c1.1,1.7,2.3,3.4,3.6,5l-9.3,10.1l16.8,15.4l9.3-10.1c1.3,0.8,2.6,1.6,3.9,2.4&#10;&#9;&#9;c0.5,0.3,0.9,0.5,1.4,0.8l-4.3,13l21.6,7.2l4.3-13c2,0.3,4.1,0.5,6.1,0.7l1.4,13.6l22.7-2.3l-1.4-13.6c2-0.5,3.9-1.2,5.9-1.9&#10;&#9;&#9;l6.8,11.9l19.7-11.3l-6.8-11.9c1.6-1.3,3.1-2.7,4.6-4.1l11.1,8l13.4-18.4l-11.1-8.1c0.9-1.8,1.7-3.7,2.5-5.6L713.5,1000.1z&#10;&#9;&#9; M611,989.2c-3.4,6.1-11.2,8.3-17.4,4.9c-6.1-3.4-8.3-11.2-4.9-17.4c3.4-6.1,11.2-8.3,17.4-4.9C612.3,975.2,614.5,983,611,989.2z&#10;&#9;&#9; M620,946.9c-6.1-3.4-8.3-11.2-4.9-17.4c3.4-6.1,11.2-8.3,17.4-4.9c6.2,3.4,8.3,11.2,4.9,17.4C634,948.2,626.2,950.4,620,946.9z&#10;&#9;&#9; M630,982.9c-5.9-3.3-8-10.8-4.7-16.7c3.3-5.9,10.8-8,16.7-4.7c5.9,3.3,8,10.8,4.7,16.7C643.4,984.1,635.9,986.2,630,982.9z&#10;&#9;&#9; M656.8,1014.9c-3.4,6.1-11.2,8.3-17.4,4.9c-6.2-3.4-8.3-11.2-4.9-17.4c3.4-6.2,11.2-8.3,17.4-4.9&#10;&#9;&#9;C658.1,1000.9,660.3,1008.7,656.8,1014.9z M683.2,967.8c-3.4,6.2-11.2,8.3-17.4,4.9c-6.1-3.4-8.3-11.2-4.9-17.4&#10;&#9;&#9;c3.4-6.1,11.2-8.3,17.4-4.9C684.5,953.8,686.7,961.6,683.2,967.8z" style="fill: rgb(50, 38, 56);" transform="matrix(1, 0, 0, 1, 0, 0)"/><path class="st1" d="M672.8,593.5v-23h-14.3c-1.2-5.3-3.4-10.5-6.3-15.1l10.1-10.1L646.1,529L636,539.1c-4.7-2.9-9.8-5-15.1-6.3&#10;&#9;&#9;v-14.3h-23v14.3c-5.3,1.2-10.5,3.4-15.1,6.3L572.6,529l-16.3,16.3l10.1,10.1c-2.9,4.7-5,9.8-6.3,15.1h-14.3l0,23h14.3&#10;&#9;&#9;c1.2,5.3,3.4,10.5,6.3,15.1l-10.1,10.1l16.3,16.3l10.1-10.1c4.7,2.9,9.8,5,15.1,6.3v14.3h23v-14.3c5.3-1.2,10.5-3.4,15.1-6.3&#10;&#9;&#9;l10.1,10.1l16.3-16.3l-10.1-10.1c2.9-4.7,5-9.8,6.3-15.1H672.8z M609.3,600c-9.9,0-18-8.1-18-18s8.1-18,18-18c9.9,0,18,8.1,18,18&#10;&#9;&#9;S619.3,600,609.3,600z" style="fill: rgb(50, 38, 56);" transform="matrix(1, 0, 0, 1, 0, 0)"/><path class="st1" d="M-15.2,698.5c-22.6,0-41,18.4-41,41s18.4,41,41,41c22.6,0,41-18.4,41-41S7.4,698.5-15.2,698.5z M-15.2,770.5&#10;&#9;&#9;&#9;c-17.1,0-31-13.9-31-31c0-17.1,13.9-31,31-31c17.1,0,31,13.9,31,31C15.8,756.6,1.9,770.5-15.2,770.5z" style="fill: rgb(50, 38, 56);" transform="matrix(1, 0, 0, 1, 0, 0)"/><path class="st1" d="M79.1,757.5h27.7v-36H79.1c-2.4-12.8-7.5-25.1-14.9-36L83.8,666l-25.5-25.5l-19.6,19.6&#10;&#9;&#9;&#9;c-10.8-7.4-23.1-12.4-36-14.9v-27.7h-36v27.7c-12.8,2.4-25.1,7.5-36,14.9l-19.6-19.6l-25.5,25.5l19.6,19.6&#10;&#9;&#9;&#9;c-7.4,10.8-12.5,23.1-14.9,36h-27.7l0,36l27.7,0c2.4,12.8,7.5,25.1,14.9,36l-19.6,19.6l25.5,25.5l19.6-19.6&#10;&#9;&#9;&#9;c10.8,7.4,23.1,12.5,36,14.9v27.7l36,0v-27.7c12.8-2.4,25.1-7.5,36-14.9l19.6,19.6L83.8,813l-19.6-19.6&#10;&#9;&#9;&#9;C71.6,782.6,76.7,770.3,79.1,757.5z M69.7,813l-11.3,11.3l-18.6-18.6l-3.5,2.6c-11.5,8.6-25,14.2-39.2,16.2l-4.3,0.6v26.3l-16,0&#10;&#9;&#9;&#9;v-26.3l-4.3-0.6c-14.2-2-27.7-7.6-39.2-16.2l-3.5-2.6l-18.6,18.6L-100,813l18.6-18.6L-84,791c-8.6-11.5-14.2-25-16.2-39.2&#10;&#9;&#9;&#9;l-0.6-4.3l-26.3,0l0-16h26.3l0.6-4.3c2-14.2,7.6-27.7,16.2-39.2l2.6-3.5L-100,666l11.3-11.3l18.6,18.6l3.5-2.6&#10;&#9;&#9;&#9;c11.5-8.6,25-14.2,39.2-16.2l4.3-0.6v-26.3h16v26.3l4.3,0.6c14.2,2,27.7,7.6,39.2,16.2l3.5,2.6l18.6-18.6L69.7,666l-18.6,18.6&#10;&#9;&#9;&#9;l2.6,3.5c8.6,11.5,14.2,25,16.2,39.2l0.6,4.3h26.3v16H70.6l-0.6,4.3c-2,14.2-7.6,27.7-16.2,39.2l-2.6,3.5L69.7,813z" style="fill: rgb(50, 38, 56);" transform="matrix(1, 0, 0, 1, 0, 0)"/><path class="st1" d="M984.8,698.5c-22.6,0-41,18.4-41,41s18.4,41,41,41s41-18.4,41-41S1007.4,698.5,984.8,698.5z M984.8,770.5&#10;&#9;&#9;&#9;c-17.1,0-31-13.9-31-31c0-17.1,13.9-31,31-31c17.1,0,31,13.9,31,31C1015.8,756.6,1001.9,770.5,984.8,770.5z" style="fill: rgb(50, 38, 56);" transform="matrix(1, 0, 0, 1, 0, 0)"/><path class="st1" d="M1079.1,757.5h27.7v-36h-27.7c-2.4-12.8-7.5-25.1-14.9-36l19.6-19.6l-25.5-25.5l-19.6,19.6&#10;&#9;&#9;&#9;c-10.8-7.4-23.1-12.4-36-14.9v-27.7h-36v27.7c-12.8,2.4-25.1,7.5-36,14.9l-19.6-19.6L885.8,666l19.6,19.6&#10;&#9;&#9;&#9;c-7.4,10.8-12.5,23.1-14.9,36h-27.7l0,36l27.7,0c2.4,12.8,7.5,25.1,14.9,36L885.8,813l25.5,25.5l19.6-19.6&#10;&#9;&#9;&#9;c10.8,7.4,23.1,12.5,36,14.9v27.7l36,0v-27.7c12.8-2.4,25.1-7.5,36-14.9l19.6,19.6l25.5-25.5l-19.6-19.6&#10;&#9;&#9;&#9;C1071.6,782.6,1076.7,770.3,1079.1,757.5z M1069.7,813l-11.3,11.3l-18.6-18.6l-3.5,2.6c-11.5,8.6-25,14.2-39.2,16.2l-4.3,0.6v26.3&#10;&#9;&#9;&#9;l-16,0v-26.3l-4.3-0.6c-14.2-2-27.7-7.6-39.2-16.2l-3.5-2.6l-18.6,18.6L900,813l18.6-18.6L916,791c-8.6-11.5-14.2-25-16.2-39.2&#10;&#9;&#9;&#9;l-0.6-4.3l-26.3,0l0-16h26.3l0.6-4.3c2-14.2,7.6-27.7,16.2-39.2l2.6-3.5L900,666l11.3-11.3l18.6,18.6l3.5-2.6&#10;&#9;&#9;&#9;c11.5-8.6,25-14.2,39.2-16.2l4.3-0.6v-26.3h16v26.3l4.3,0.6c14.2,2,27.7,7.6,39.2,16.2l3.5,2.6l18.6-18.6l11.3,11.3l-18.6,18.6&#10;&#9;&#9;&#9;l2.6,3.5c8.6,11.5,14.2,25,16.2,39.2l0.6,4.3h26.3v16h-26.3l-0.6,4.3c-2,14.2-7.6,27.7-16.2,39.2l-2.6,3.5L1069.7,813z" style="fill: rgb(50, 38, 56);" transform="matrix(1, 0, 0, 1, 0, 0)"/><path class="st1" d="M818.1,733.4l19-2.3l-3.3-27.8l-19,2.3c-0.9-3-1.9-6-3.1-9c-0.3-0.6-0.5-1.2-0.8-1.9l16-10.5l-15.3-23.4&#10;&#9;&#9;l-16,10.5c-2.6-2.9-5.4-5.5-8.4-8l9.7-16.5l-24.2-14.1l-9.7,16.5c-3.6-1.4-7.3-2.5-11-3.4l1.3-19.1l-27.9-1.9l-1.3,19.1&#10;&#9;&#9;c-3.8,0.4-7.5,1-11.3,1.9l-7.3-17.7l-25.9,10.7l7.3,17.7c-1.2,0.7-2.3,1.5-3.5,2.3L670.2,645L650,664.4l13.3,13.8&#10;&#9;&#9;c-0.8,1.1-1.6,2.2-2.4,3.3l-17.4-8L631.8,699l17.4,8c-1,3.7-1.8,7.5-2.3,11.3l-19.1,0.6l0.9,28l19.1-0.6c0.7,3.8,1.8,7.5,3,11.1&#10;&#9;&#9;l-16.9,9.1l13.3,24.7l16.8-9c2.4,3.1,4.9,6,7.6,8.7l-11.1,15.6l22.8,16.2l11-15.6c3.5,1.7,7,3.1,10.7,4.3l-3,18.9l27.7,4.3l3-18.9&#10;&#9;&#9;c3.9,0,7.7-0.3,11.5-0.9l5.8,18.2l26.7-8.4l-5.8-18.3c3.5-1.8,6.8-3.7,9.9-5.9l13.3,13.8l20.2-19.4L801.2,781&#10;&#9;&#9;c2.3-3.1,4.4-6.3,6.2-9.7l18.1,6.4l9.4-26.4l-18.1-6.4C817.5,741.1,817.9,737.3,818.1,733.4z M721.8,804.9l-3-0.5&#10;&#9;&#9;c-10.3-1.8-20-5.7-28.5-11.4l-3.9-2.8c-9.3-7-17-16.2-22.3-27l49.3-20.4c4.2,6.1,11.2,9.8,18.8,9.8c0,0,0,0,0,0&#10;&#9;&#9;c1.3,0,2.7-0.1,4-0.4l20.4,49.3c-0.7,0.3-1.5,0.5-2.2,0.7l-0.2,0.1c-7.1,2.2-14.5,3.3-21.9,3.3&#10;&#9;&#9;C728.7,805.6,725.2,805.4,721.8,804.9z M656.2,729.6c0-9.8,1.9-19.7,5.8-29.1c3.8-9.2,9.2-17.3,16-24.2l3.2-3.1&#10;&#9;&#9;c5.2-4.7,11-8.6,17.4-11.8l20.4,49.3c-7.3,5.1-11,14-9.4,22.8L660.3,754c-2.2-6.6-3.5-13.3-3.9-20.1L656.2,729.6z M736.3,653.7&#10;&#9;&#9;l2.5,0.2c10.6,0.9,20.7,4,29.8,8.9l4.2,2.5c8.9,5.6,16.5,13,22.5,21.9l0.9,1.4c1.5,2.4,2.9,4.8,4.1,7.4l-49.3,20.4&#10;&#9;&#9;c-4.2-6.1-11.2-9.8-18.8-9.8c-1.3,0-2.7,0.1-4,0.4l-20.4-49.3c7.9-2.7,16.1-4.1,24.4-4.1C733.6,653.6,734.9,653.6,736.3,653.7z&#10;&#9;&#9; M745.4,748.4c3.6-2.5,6.3-5.9,8-10c1.7-4.1,2.2-8.5,1.4-12.8l49.3-20.4c12.2,36-4.2,75.7-38.3,92.5L745.4,748.4z" style="fill: rgb(50, 38, 56);" transform="matrix(1, 0, 0, 1, 0, 0)"/><path class="st1" d="M308.2,782.7l4.6-22.3l-13.4-2.8c0.1-2,0.1-4.1,0-6.2l13.4-2.9l-4.9-22.2l-13.4,2.9c-0.8-1.9-1.6-3.8-2.5-5.6&#10;&#9;&#9;l11-8.2l-13.6-18.3l-11,8.2c-1.5-1.4-3-2.8-4.6-4.1l6.7-12l-19.9-11.1l-6.7,12c-1-0.4-2-0.7-3-1l1.8-13.6l-22.6-3l-1.8,13.6&#10;&#9;&#9;c-2,0.1-4.1,0.2-6.1,0.5l-3.9-13.1l-21.8,6.5l3.9,13.1c-1.8,0.9-3.7,1.9-5.4,2.9l-8.9-10.4l-17.3,14.9l8.9,10.4&#10;&#9;&#9;c-1.3,1.6-2.6,3.2-3.7,4.9l-12.4-5.8l-9.7,20.6l12.4,5.8c-0.6,2-1,4-1.4,6l-13.7-0.2l-0.4,22.8l13.7,0.2c0.3,2,0.7,4,1.2,6&#10;&#9;&#9;l-12.6,5.4l9,20.9l12.6-5.4c1.1,1.7,2.3,3.4,3.6,5l-9.3,10.1l16.8,15.4l9.3-10.1c1.3,0.8,2.6,1.6,3.9,2.4c0.5,0.3,0.9,0.5,1.4,0.8&#10;&#9;&#9;l-4.3,13l21.6,7.2l4.3-13c2,0.3,4.1,0.5,6.1,0.7l1.4,13.6l22.7-2.3l-1.4-13.6c2-0.5,3.9-1.2,5.9-1.9l6.8,11.9l19.7-11.3l-6.8-11.9&#10;&#9;&#9;c1.6-1.3,3.1-2.7,4.6-4.1l11.1,8l13.4-18.4l-11.1-8.1c0.9-1.8,1.7-3.7,2.5-5.6L308.2,782.7z M205.7,771.8&#10;&#9;&#9;c-3.4,6.2-11.2,8.3-17.4,4.9c-6.2-3.4-8.3-11.2-4.9-17.4c3.4-6.1,11.2-8.3,17.4-4.9C206.9,757.8,209.1,765.6,205.7,771.8z&#10;&#9;&#9; M214.7,729.5c-6.1-3.4-8.3-11.2-4.9-17.4c3.4-6.2,11.2-8.3,17.4-4.9c6.1,3.4,8.3,11.2,4.9,17.4C228.6,730.8,220.9,733,214.7,729.5&#10;&#9;&#9;z M224.7,765.5c-5.9-3.3-8-10.8-4.7-16.7c3.3-5.9,10.8-8,16.7-4.7s8,10.8,4.7,16.7C238,766.7,230.6,768.8,224.7,765.5z&#10;&#9;&#9; M251.5,797.4c-3.4,6.1-11.2,8.3-17.4,4.9c-6.2-3.4-8.3-11.2-4.9-17.4c3.4-6.2,11.2-8.3,17.4-4.9&#10;&#9;&#9;C252.7,783.5,254.9,791.3,251.5,797.4z M277.9,750.3c-3.4,6.2-11.2,8.3-17.4,4.9c-6.2-3.4-8.3-11.2-4.9-17.4&#10;&#9;&#9;c3.4-6.1,11.2-8.3,17.4-4.9C279.2,736.4,281.4,744.2,277.9,750.3z" style="fill: rgb(50, 38, 56);" transform="matrix(1, 0, 0, 1, 0, 0)"/><path class="st1" d="M538.8,108.5v-23h-14.3c-1.2-5.3-3.4-10.5-6.3-15.1l10.1-10.1L512.1,44L502,54.1c-4.7-2.9-9.8-5-15.1-6.3V33.5&#10;&#9;&#9;h-23v14.3c-5.3,1.2-10.5,3.4-15.1,6.3L438.6,44l-16.3,16.3l10.1,10.1c-2.9,4.7-5,9.8-6.3,15.1h-14.3l0,23h14.3&#10;&#9;&#9;c1.2,5.3,3.4,10.5,6.3,15.1l-10.1,10.1l16.3,16.3l10.1-10.1c4.7,2.9,9.8,5,15.1,6.3v14.3h23v-14.3c5.3-1.2,10.5-3.4,15.1-6.3&#10;&#9;&#9;l10.1,10.1l16.3-16.3l-10.1-10.1c2.9-4.7,5-9.8,6.3-15.1H538.8z M475.3,115c-9.9,0-18-8.1-18-18s8.1-18,18-18s18,8.1,18,18&#10;&#9;&#9;S485.3,115,475.3,115z" style="fill: rgb(50, 38, 56);" transform="matrix(1, 0, 0, 1, 0, 0)"/><path class="st1" d="M236.8,375.5c-22.6,0-41,18.4-41,41s18.4,41,41,41s41-18.4,41-41S259.4,375.5,236.8,375.5z M236.8,447.5&#10;&#9;&#9;&#9;c-17.1,0-31-13.9-31-31c0-17.1,13.9-31,31-31c17.1,0,31,13.9,31,31C267.8,433.6,253.9,447.5,236.8,447.5z" style="fill: rgb(50, 38, 56);" transform="matrix(1, 0, 0, 1, 0, 0)"/><path class="st1" d="M236.8,402.5c-7.7,0-14,6.3-14,14s6.3,14,14,14c7.7,0,14-6.3,14-14S244.6,402.5,236.8,402.5z M236.8,420.5&#10;&#9;&#9;&#9;c-2.2,0-4-1.8-4-4s1.8-4,4-4c2.2,0,4,1.8,4,4S239,420.5,236.8,420.5z" style="fill: rgb(50, 38, 56);" transform="matrix(1, 0, 0, 1, 0, 0)"/><path class="st1" d="M866.8,833.5c-22.6,0-41,18.4-41,41s18.4,41,41,41c22.6,0,41-18.4,41-41S889.4,833.5,866.8,833.5z&#10;&#9;&#9;&#9; M866.8,905.5c-17.1,0-31-13.9-31-31c0-17.1,13.9-31,31-31s31,13.9,31,31C897.8,891.6,883.9,905.5,866.8,905.5z" style="fill: rgb(50, 38, 56);" transform="matrix(1, 0, 0, 1, 0, 0)"/><path class="st1" d="M866.8,860.5c-7.7,0-14,6.3-14,14s6.3,14,14,14c7.7,0,14-6.3,14-14S874.6,860.5,866.8,860.5z M866.8,878.5&#10;&#9;&#9;&#9;c-2.2,0-4-1.8-4-4s1.8-4,4-4c2.2,0,4,1.8,4,4S869,878.5,866.8,878.5z" style="fill: rgb(50, 38, 56);" transform="matrix(1, 0, 0, 1, 0, 0)"/>
</svg>